<svg width="284" height="161" viewBox="0 0 284 161" fill="none" xmlns="http://www.w3.org/2000/svg">
<g clip-path="url(#clip0)">
<path opacity="0.1" d="M170.73 114.053C176.216 113.742 183.023 110.043 188.316 108.407C194.58 106.475 200.869 104.617 207.183 102.832C229.163 96.6158 251.378 91.3187 273.83 86.9412C275.925 86.5316 278.023 86.1318 280.125 85.7419C276.851 78.7098 271.779 72.6544 265.414 68.1801C265.577 66.6406 265.66 65.0939 265.662 63.546C265.662 39.0824 245.994 19.2504 221.723 19.2504C214.25 19.2425 206.903 21.1596 200.398 24.8148C183.22 13.5824 160.798 6.78418 136.266 6.78418C101.407 6.78418 70.8057 20.5113 53.4657 41.1823L134.96 54.8675L184.942 63.2573C127.962 64.9476 70.8057 66.628 13.9894 62.6602C-1.4779 77.5362 -4.19447 101.211 7.50518 119.168C7.50518 120.054 7.54241 120.932 7.60944 121.803C9.05672 122.215 10.4544 122.615 11.708 122.877C31.8341 127.103 52.0896 130.64 72.474 133.487C57.4525 142.694 39.1592 143.997 21.8315 147.895C30.2223 154.78 41.6168 159 54.1732 159H241.133C261.378 159 277.787 144.991 277.787 127.708C280.825 122.729 282.849 117.204 283.745 111.449C246.284 115.045 208.357 111.923 170.73 114.053Z" fill="#05838B"/>
<path opacity="0.1" d="M284 104.089C284.041 89.6337 277.002 76.0632 265.133 67.7114C265.295 66.1726 265.378 64.6269 265.381 63.0797C265.381 38.6161 245.703 18.7915 221.442 18.7915C213.969 18.7836 206.621 20.6997 200.115 24.3535C182.936 13.1161 160.512 6.31543 135.98 6.31543C96.0767 6.31543 61.7292 24.3165 46.4968 50.1299C45.6503 50.0805 44.7988 50.0534 43.9398 50.0534C19.6762 50.0534 8.70276e-05 69.8853 8.70276e-05 94.349C-0.017042 102.99 2.49472 111.449 7.22905 118.697C7.22905 140.707 28.129 158.551 53.8995 158.551H240.864C261.106 158.551 277.516 144.54 277.516 127.257C281.773 120.271 284.016 112.256 284 104.089Z" fill="#05838B"/>
<path d="M231.937 76.9503C231.582 76.6794 231.167 76.4982 230.726 76.4222C230.262 76.3161 229.788 76.2495 229.316 76.1755L223.204 75.2995C222.587 75.1857 221.958 75.1524 221.332 75.2008C220.698 75.2523 220.112 75.5546 219.704 76.0398C219.522 76.2631 219.422 76.5419 219.421 76.8294C219.455 77.1188 219.55 77.3979 219.699 77.6486C219.758 77.7658 219.808 77.887 219.85 78.0113C219.909 78.2904 219.982 78.5663 220.069 78.838C220.096 78.8967 220.131 78.9515 220.173 79.0009C220.174 79.0149 220.174 79.0287 220.173 79.0428C220.106 79.3833 220.322 79.7387 220.225 80.0668C220.141 80.3481 219.865 80.5184 219.691 80.7528C219.454 81.0929 219.445 81.5405 219.667 81.8904C219.853 82.1766 220.19 82.3716 220.287 82.6998C220.414 83.1316 220.071 83.5486 219.766 83.8817C219.204 84.4949 218.685 85.1454 218.212 85.8287C218.079 85.9967 217.993 86.1968 217.964 86.4085C217.936 86.8379 218.351 87.2154 218.279 87.6423C218.222 87.9779 217.892 88.1827 217.606 88.3826C216.551 89.0735 215.704 90.1839 215.62 91.4399C215.349 89.4417 214.516 87.5599 213.217 86.0113C212.862 85.5868 212.472 85.1599 212.326 84.622C212.271 84.4073 212.261 84.1778 212.187 83.9706C211.939 83.3167 211.149 83.0354 210.804 82.4333C210.556 82.0088 210.556 81.4635 210.248 81.0909C209.94 80.7183 209.456 80.6344 209.19 80.2741C209.058 80.0301 208.945 79.7759 208.853 79.5141C208.741 79.3007 208.585 79.1136 208.394 78.9663C208.357 78.9372 208.319 78.91 208.279 78.8849C208.363 78.8108 208.411 78.705 208.411 78.5937C208.411 78.305 208.123 78.115 207.872 77.9719C207.55 77.7893 207.234 77.5919 206.926 77.3871C207.262 77.2316 207.553 76.9949 207.773 76.6986C208.049 76.2566 208.162 75.7338 208.096 75.218C208.079 74.8018 207.922 74.4032 207.651 74.0854C207.495 73.9201 207.299 73.8017 207.135 73.6462C206.71 73.2341 206.567 72.6246 206.39 72.062C206.157 71.3217 205.792 70.5444 205.112 70.1521C204.784 69.9621 204.402 69.8733 204.082 69.6734C203.761 69.4735 203.493 69.096 203.605 68.7332C203.679 68.4865 203.91 68.3162 204.067 68.1065C204.455 67.5421 204.315 66.772 203.751 66.3792C203.568 66.2632 203.342 66.162 203.305 65.9498C203.011 65.874 202.787 65.6381 202.729 65.3428C202.673 65.0526 202.673 64.7545 202.729 64.4643C202.793 64.0053 202.857 63.5481 202.92 63.0923C203.141 63.1836 203.389 63.1836 203.61 63.0923C203.825 63.4388 204.074 63.763 204.355 64.0596C205.111 64.947 205.699 65.9626 206.092 67.0577C206.234 67.4526 206.378 67.8943 206.745 68.104C206.872 68.1756 207.016 68.2126 207.14 68.2891C207.293 68.3952 207.424 68.5292 207.527 68.6839C207.825 69.0762 208.123 69.4661 208.418 69.8584L208.433 69.9177C208.441 69.9525 208.455 69.9858 208.473 70.0164C208.528 70.0778 208.604 70.1166 208.687 70.125C209.6 70.3347 210.625 70.5272 211.417 70.0312C212.132 69.587 212.445 68.7086 213.051 68.1213C213.48 67.7043 214.088 67.381 214.21 66.7937C214.065 66.7493 213.923 66.6975 213.783 66.6383C213.907 66.5149 214.031 66.3718 214.2 66.2089C214.445 65.9703 214.667 65.7082 214.86 65.4267C215.07 65.0792 215.237 64.7081 215.357 64.3212C215.835 62.9657 216.315 61.6093 216.797 60.2521C217.025 59.6106 217.254 58.9641 217.542 58.3398C217.839 57.6637 218.192 57.0147 218.517 56.3509C219.356 54.6246 220.004 52.8126 220.448 50.9469C220.527 50.6922 220.553 50.4245 220.525 50.1597C220.456 49.7328 220.131 49.3972 219.82 49.0937C219.508 48.7579 219.153 48.465 218.763 48.2227C218.367 47.9781 217.89 47.9019 217.437 48.0105C216.802 48.1955 216.402 48.842 216.256 49.491C216.109 50.14 216.164 50.8087 216.102 51.4651C216.012 52.4151 215.685 53.333 215.605 54.2855C215.563 54.8358 215.605 55.3935 215.538 55.9437C215.416 56.6638 215.164 57.3562 214.793 57.9869C213.988 59.4914 212.899 60.8269 211.584 61.9202C211.432 62.0461 211.276 62.167 211.127 62.3027C211.127 62.1966 211.144 62.088 211.159 61.9819C211.051 62.0098 210.946 62.0471 210.844 62.093C210.856 61.9683 210.844 61.8425 210.807 61.7228C210.608 61.1331 209.724 60.9826 209.565 60.3829C209.539 60.2346 209.525 60.0844 209.523 59.9338C209.471 59.4082 209.111 58.9641 208.987 58.4533C208.873 57.982 208.96 57.4662 208.739 57.0295C208.55 56.7563 208.329 56.5076 208.078 56.2892C207.78 55.9507 207.565 55.5477 207.45 55.1122C207.418 54.9913 207.388 54.8654 207.353 54.7445C207.391 54.4706 207.36 54.1918 207.264 53.9327C207.038 53.375 206.455 53.0172 206.244 52.4521C206.08 52.0129 206.152 51.4651 205.842 51.1246C205.677 50.9619 205.475 50.8408 205.253 50.7717C204.117 50.332 202.925 50.0519 201.711 49.9401C201.031 49.8784 200.281 49.8439 199.794 49.3676C199.226 48.8149 199.199 47.8205 198.533 47.3936C197.947 47.016 197.118 47.2949 196.664 47.8254C196.596 47.9034 196.533 47.9858 196.475 48.0722C196.392 47.7415 196.375 47.3978 196.423 47.0604C196.423 46.9766 196.441 46.8902 196.448 46.8137C197.569 46.4497 198.523 45.7008 199.139 44.7014C199.139 44.7014 199.139 44.7014 199.139 44.7162L199.169 44.7927C199.241 44.9729 199.355 45.1456 199.524 45.1653C199.636 45.1641 199.744 45.1249 199.832 45.0543C199.981 44.9509 200.12 44.8317 200.244 44.699C200.306 44.6299 200.366 44.5583 200.422 44.4843C200.537 44.3303 200.635 44.1647 200.715 43.9908C200.839 43.729 200.922 43.4504 200.964 43.1641C201.008 42.8779 201.013 42.5842 201.063 42.298C201.109 42.0764 201.17 41.858 201.244 41.6441C201.269 41.5725 201.294 41.501 201.316 41.4294C201.338 41.3579 201.371 41.2616 201.396 41.1827C201.551 40.6751 201.634 40.1487 201.644 39.6182C201.644 39.5294 201.644 39.4405 201.644 39.3517C201.625 38.6524 201.325 37.9899 200.81 37.5134C200.383 37.1654 199.817 37.0198 199.504 36.5485C199.3 36.2327 199.256 35.8255 199.136 35.4554C198.874 34.5518 198.117 33.8752 197.185 33.7108C196.635 33.6509 196.083 33.8019 195.641 34.1328L195.606 34.1599C195.36 34.3467 195.151 34.5777 194.991 34.841C194.663 34.7512 194.362 34.5816 194.117 34.3475C193.869 34.118 193.678 33.8293 193.427 33.6072C192.95 33.1726 192.272 33.031 191.659 33.237C191.03 33.4875 190.561 34.0225 190.396 34.6756C190.259 35.184 190.284 35.7688 189.998 36.1932C189.778 36.5239 189.415 36.6867 189.162 36.9878C189.005 37.1785 188.897 37.4048 188.849 37.6466C188.819 37.7818 188.805 37.9203 188.807 38.0587C188.807 38.1204 188.807 38.1821 188.822 38.2413C188.822 38.2413 188.822 38.261 188.822 38.2709C188.83 38.3385 188.845 38.4054 188.864 38.4708C188.935 38.721 189.061 38.952 189.234 39.1469C189.398 39.3335 189.602 39.4803 189.832 39.5763C189.926 39.6125 190.022 39.6431 190.12 39.6676L190.416 39.7342L190.52 39.7589C189.797 41.1074 189.746 42.7128 190.381 44.1043C190.381 44.1734 190.363 44.2425 190.356 44.3116C190.316 45.2833 190.359 46.2565 190.485 47.2208C190.52 47.6033 190.54 48.0253 190.304 48.3288C190.196 48.4482 190.076 48.5551 189.944 48.6471C190.078 48.4744 190.214 48.3041 190.353 48.1338C190.003 47.7834 189.45 47.739 188.953 47.7736C187.992 47.8449 187.06 48.1282 186.223 48.6027C185.667 48.921 185.096 49.343 184.46 49.2689C184.085 49.227 183.715 49.0222 183.35 49.1209C183.145 49.2043 182.954 49.3173 182.782 49.4565C182.646 49.5532 182.482 49.6035 182.315 49.5996C181.925 49.1233 181.322 48.8001 180.856 48.4127C180.324 47.9426 179.838 47.4247 179.403 46.8655C178.599 45.9007 177.797 44.9334 177.008 43.9587C176.342 43.1395 175.66 42.2536 175.543 41.2049C175.531 41.1007 175.525 40.9961 175.526 40.8915C175.542 40.3933 175.605 39.8975 175.714 39.4109C175.744 39.2935 175.744 39.1706 175.714 39.0531C175.64 38.8064 175.354 38.7151 175.109 38.6608C175.141 38.4708 175.163 38.2758 175.176 38.0908C175.315 35.9687 175.163 33.812 175.615 31.7343C175.786 30.9348 176.067 30.1254 176.645 29.5455C177.551 28.635 179.068 28.4154 179.763 27.337C180.344 26.4388 180.113 25.168 179.383 24.3759C178.654 23.5839 177.529 23.2606 176.459 23.3001C176.159 23.2897 175.862 23.3689 175.608 23.5271C175.37 23.7373 175.191 24.0063 175.091 24.3069L174.026 26.8805C173.717 27.5505 173.457 28.2417 173.247 28.9484C172.949 30.0292 172.882 31.1692 172.646 32.2599C172.646 33.0989 172.102 34.1451 171.804 34.9175C171.472 35.7861 171.112 36.6448 170.811 37.5306C170.737 37.7527 170.476 38.4116 170.315 39.0112C170.254 39.0465 170.197 39.0887 170.146 39.137C170.017 39.3021 169.899 39.4761 169.794 39.6577C169.568 39.9538 169.2 40.1117 168.952 40.398C168.704 40.6842 168.652 41.2098 168.997 41.3529C169.067 41.3764 169.139 41.3922 169.213 41.3998C169.258 41.4035 169.303 41.4109 169.347 41.422C169.719 41.5257 169.866 41.992 169.811 42.377C169.756 42.7619 169.563 43.1172 169.531 43.5022C169.463 44.1832 169.866 44.8174 170.253 45.3899C170.654 46.0105 171.097 46.6032 171.579 47.1641C171.929 47.554 172.323 47.9044 172.676 48.2794C174.019 49.6514 175.086 51.2553 176.293 52.7458C176.727 53.3084 177.22 53.8229 177.765 54.2806C178.12 54.557 178.493 54.8116 178.88 55.0431L180.955 56.3509C181.19 56.5224 181.457 56.6473 181.739 56.7186C181.832 56.7309 181.925 56.7309 182.017 56.7186C182.03 56.7803 182.04 56.8395 182.055 56.9012C182.216 57.5477 182.571 58.135 182.611 58.7938C182.65 59.4526 182.591 60.1263 182.638 60.7925C182.683 61.407 182.819 62.0263 182.854 62.6309C182.923 63.7956 182.635 64.9455 182.357 66.0855C181.938 67.7536 181.685 69.4562 180.868 70.9689C180.64 71.3859 180.371 71.8103 180.371 72.2866C180.371 72.3433 180.371 72.4025 180.386 72.4593L180.014 72.669C179.905 72.7307 179.796 72.7924 179.696 72.8566C179.225 73.1625 178.721 73.5006 178.527 74.0287C178.371 74.4556 178.443 74.9441 178.254 75.3587C178.245 75.3772 178.235 75.3955 178.224 75.413C178.026 75.7979 177.631 76.0842 177.541 76.5061C177.474 76.8294 177.604 77.1724 177.541 77.4932C177.541 77.4932 177.541 77.4932 177.541 77.5055C177.485 77.6666 177.44 77.8315 177.407 77.999C177.405 78.0538 177.41 78.1086 177.422 78.1619C177.47 78.3489 177.574 78.5167 177.72 78.6431C177.81 78.7284 177.907 78.8052 178.011 78.8725C178.117 78.9416 178.226 79.0058 178.338 79.065L178.403 79.0996C178.497 79.1489 178.592 79.1958 178.688 79.2402L178.753 79.2673C178.865 79.3167 178.979 79.3611 179.093 79.4006L179.172 79.4253C179.262 79.4549 179.354 79.482 179.446 79.5042L179.508 79.524L179.565 79.5363L179.813 79.5881L179.905 79.6054C180.014 79.6234 180.126 79.6382 180.24 79.6498H180.339C180.424 79.6498 180.506 79.6622 180.587 79.6646H180.704C180.791 79.6646 180.875 79.6646 180.952 79.6646H181.042C181.158 79.6646 181.275 79.6474 181.392 79.6326H181.429C181.533 79.6177 181.638 79.6005 181.742 79.5783L181.821 79.561C181.918 79.5388 182.015 79.5166 182.112 79.487L182.164 79.4722C182.28 79.4376 182.397 79.4006 182.511 79.3562C182.907 79.1948 183.29 79.006 183.658 78.7911C183.907 78.6554 184.155 78.5172 184.403 78.3914C184.587 78.2991 184.776 78.2167 184.969 78.1446C185.438 77.9452 185.949 77.8606 186.458 77.8978C186.71 77.9319 186.958 77.9822 187.203 78.0484C187.203 78.0755 187.203 78.1027 187.203 78.1298C187.405 79.3142 187.605 80.4987 187.802 81.6831C188.126 81.4507 188.47 81.2451 188.829 81.0687C188.762 81.2476 188.718 81.4341 188.698 81.6239C188.683 81.7707 188.683 81.9188 188.698 82.0656C188.72 82.3 188.77 82.5591 188.628 82.7442C188.541 82.8577 188.38 82.9218 188.333 83.0502C188.298 83.1814 188.29 83.3179 188.308 83.4524C188.287 83.7695 188.036 84.0234 187.717 84.0495C187.863 84.4584 187.708 84.9137 187.342 85.1501C187.238 85.1997 187.142 85.2628 187.054 85.3376C186.969 85.4467 186.912 85.5745 186.888 85.7102C186.56 86.9322 185.885 88.0347 184.944 88.886C184.591 89.1616 184.269 89.4745 183.983 89.8187C183.807 90.0855 183.661 90.371 183.549 90.6701C182.887 92.2789 182.215 93.8885 181.533 95.4991C181.156 96.3998 180.789 97.3153 180.669 98.285C180.371 100.945 177.988 103.2 178.435 105.841C178.526 106.5 178.793 107.123 179.21 107.645C179.706 108.239 180.451 108.58 181.196 108.856C183.11 109.596 185.128 110.001 187.139 110.408L190.296 111.052C190.916 111.194 191.545 111.293 192.178 111.348C192.94 111.4 193.722 111.329 194.464 111.521C194.924 111.64 195.363 111.859 195.837 111.884C196.244 111.906 196.746 111.82 196.987 112.15C197.227 112.481 197.041 112.918 197.27 113.211C197.637 113.678 198.533 113.211 198.933 113.651C199.042 113.819 199.126 114.003 199.181 114.196C199.242 114.315 199.326 114.421 199.429 114.507C199.454 114.646 199.464 114.787 199.459 114.929C199.407 115.502 199.287 116.067 199.102 116.612C198.804 117.614 198.507 118.616 198.211 119.62C198.097 119.974 198.014 120.337 197.962 120.705C197.944 120.884 197.944 121.065 197.962 121.243C198.014 121.789 198.33 122.351 198.853 122.529C199.26 122.636 199.692 122.583 200.06 122.381C200.415 122.197 200.748 121.973 201.053 121.715C201.603 121.301 202.086 120.807 202.485 120.249C203.727 118.403 203.324 115.906 204.196 113.865C204.774 112.503 205.901 111.398 206.276 109.962C206.364 109.688 206.374 109.396 206.306 109.118C206.149 108.624 205.621 108.343 205.127 108.165H205.104C204.698 108.022 204.284 107.904 203.863 107.812C203.759 107.79 203.652 107.773 203.545 107.756C203.309 107.565 203.121 107.321 202.997 107.045C202.977 106.898 202.938 106.755 202.88 106.618C202.8 106.499 202.667 106.425 202.523 106.421C202.274 106.396 201.942 106.485 201.671 106.465C201.117 106.426 200.75 105.885 200.254 105.636C199.757 105.387 199.218 105.448 198.69 105.485C198.5 105.511 198.308 105.499 198.124 105.451C197.903 105.35 197.702 105.212 197.528 105.044C196.908 104.565 196.098 104.403 195.341 104.607C195.103 104.702 194.852 104.759 194.596 104.775C194.112 104.748 193.769 104.318 193.412 103.993C192.434 103.102 191.041 102.867 189.855 102.283C189.673 102.215 189.521 102.086 189.428 101.917C189.291 101.582 189.599 101.246 189.877 101.017L191.917 99.3313C194.152 97.4855 196.944 96.0963 197.982 93.3893C198.09 93.0264 198.258 92.6839 198.479 92.3752C198.559 92.2809 198.652 92.198 198.754 92.1284C199.205 91.8377 199.753 91.7316 200.281 91.8323C200.925 91.9754 201.535 92.2402 202.078 92.6121C202.967 93.1468 203.832 93.7225 204.672 94.3394C205.505 94.9308 206.297 95.5773 207.043 96.2739C208.346 97.5077 209.431 98.971 210.645 100.301C211.859 101.631 213.247 102.872 214.932 103.509C216.618 104.146 218.656 104.118 220.103 103.05C221.774 101.816 222.31 99.6101 222.732 97.5867C223.663 96.6934 223.944 95.3338 224.398 94.1321C224.684 93.3696 225.048 92.6515 225.356 91.8915C225.724 90.9982 226.012 90.0754 226.3 89.155C226.626 88.2306 226.848 87.2732 226.96 86.3C227.079 84.7627 226.665 83.1267 227.099 81.6831C227.672 81.5573 228.194 81.2365 228.757 81.0489C229.596 80.775 230.495 80.8195 231.384 80.8244H231.441C231.747 80.8567 232.055 80.7847 232.315 80.6196C232.613 80.3728 232.66 79.9509 232.675 79.5684C232.709 78.6233 232.65 77.5623 231.937 76.9503ZM195.969 34.8582C195.764 34.9088 195.551 34.9236 195.341 34.9027L195.969 34.8582Z" fill="url(#paint0_linear)"/>
<path d="M196.947 50.4683C196.646 50.722 196.294 50.9081 195.914 51.0137L194.154 51.6405C193.198 51.981 192.2 52.324 191.192 52.2006C190.629 52.1315 188.213 51.7786 187.849 51.3419C187.292 50.6658 189.241 49.6713 189.907 49.1013C190.057 48.9935 190.197 48.8713 190.324 48.7361C190.572 48.4351 190.54 48.0131 190.505 47.6331C190.378 46.6705 190.335 45.6988 190.376 44.7287C190.395 44.4975 190.428 44.2676 190.475 44.0403C190.723 42.9052 191.786 43.3198 192.625 43.6208C193.635 43.947 194.612 44.3675 195.542 44.8768C195.825 45.0219 196.071 45.2297 196.262 45.4838C196.629 46.0366 196.483 46.762 196.423 47.4579C196.371 47.9983 196.373 48.5165 196.713 48.9088C196.885 49.0589 197.042 49.2239 197.183 49.4023C197.346 49.7708 197.25 50.2018 196.947 50.4683Z" fill="#FBBEBE"/>
<path d="M172.634 32.6846C172.882 31.5914 172.937 30.4637 173.235 29.3805C173.445 28.6762 173.706 27.9875 174.014 27.32L175.109 24.7809C175.209 24.4811 175.387 24.2129 175.626 24.0036C175.881 23.8464 176.177 23.7675 176.477 23.7766C177.547 23.7371 178.672 24.0678 179.401 24.85C180.131 25.6322 180.362 26.8981 179.781 27.7938C179.086 28.8721 177.569 29.0893 176.663 29.9974C176.085 30.5772 175.804 31.3841 175.633 32.1812C175.181 34.2539 175.333 36.4032 175.194 38.5204C175.149 39.1792 175.02 39.9319 174.449 40.2724C174.104 40.4404 173.72 40.5145 173.337 40.4871L171.708 40.5142C171.435 40.5142 170.445 40.6845 170.263 40.4797C169.946 40.1219 170.671 38.3403 170.802 37.943C171.095 37.0621 171.455 36.2033 171.795 35.3372C172.091 34.5649 172.634 33.5211 172.634 32.6846Z" fill="#FBBEBE"/>
<path d="M206.258 110.206C205.884 111.632 204.757 112.742 204.178 114.102C203.307 116.138 203.699 118.628 202.468 120.468C202.068 121.027 201.585 121.522 201.035 121.937C200.73 122.194 200.397 122.417 200.042 122.6C199.674 122.802 199.242 122.855 198.836 122.748C198.312 122.571 197.997 122.008 197.945 121.465C197.926 121.287 197.926 121.108 197.945 120.93C197.997 120.562 198.08 120.2 198.193 119.846C198.491 118.848 198.788 117.848 199.084 116.846C199.27 116.303 199.389 115.739 199.442 115.168C199.474 114.546 199.077 113.737 199.245 113.157C199.322 112.895 199.61 112.663 199.742 112.444C199.929 112.128 200.072 111.788 200.169 111.435C200.372 110.746 200.512 110.011 200.938 109.431C201.217 109.087 201.543 108.784 201.907 108.53C202.175 108.296 202.49 108.121 202.83 108.014C203.161 107.957 203.5 107.973 203.823 108.061C204.244 108.151 204.659 108.268 205.064 108.412H205.087C205.583 108.589 206.109 108.863 206.266 109.362C206.342 109.638 206.339 109.93 206.258 110.206Z" fill="#2C2C2C"/>
<path d="M232.672 79.8688C232.657 80.2513 232.61 80.6782 232.312 80.9175C232.053 81.0826 231.745 81.1547 231.438 81.1224H231.371C230.485 81.1224 229.584 81.073 228.745 81.3469C228.107 81.5566 227.521 81.9416 226.856 82.0181C225.94 82.1217 225.078 81.6233 224.266 81.189C223.502 80.7796 222.717 80.409 221.915 80.0786C221.389 79.8639 220.314 79.7257 220.061 79.1532C219.974 78.8823 219.901 78.6072 219.843 78.3291C219.801 78.2047 219.75 78.0835 219.691 77.9663C219.542 77.7164 219.448 77.438 219.413 77.1496C219.414 76.8621 219.514 76.5832 219.696 76.3599C220.105 75.8787 220.69 75.5794 221.322 75.5283C221.948 75.48 222.577 75.5133 223.194 75.627L229.306 76.5006C229.777 76.5672 230.252 76.6338 230.716 76.7473C231.157 76.8233 231.572 77.0045 231.927 77.2754C232.65 77.8775 232.709 78.9361 232.672 79.8688Z" fill="#2C2C2C"/>
<path d="M227.3 81.4483C226.556 83.0102 227.092 84.8585 226.958 86.5858C226.845 87.5565 226.624 88.5117 226.297 89.4334C226.009 90.3513 225.721 91.2717 225.354 92.1625C225.046 92.9028 224.681 93.643 224.396 94.3981C223.942 95.6023 223.651 96.957 222.73 97.8527C222.308 99.8712 221.772 102.077 220.101 103.301C218.649 104.367 216.626 104.404 214.93 103.76C213.235 103.116 211.857 101.882 210.643 100.552C209.429 99.2223 208.344 97.7738 207.041 96.5351C206.294 95.8382 205.5 95.1927 204.665 94.6029C203.824 93.9959 202.96 93.4252 202.071 92.8904C201.527 92.5203 200.917 92.2565 200.274 92.1131C199.745 92.0125 199.198 92.1186 198.747 92.4093C198.644 92.4788 198.552 92.5618 198.471 92.656C198.25 92.9635 198.083 93.3055 197.975 93.6677C196.932 96.3673 194.135 97.754 191.9 99.5949L189.86 101.275C189.582 101.505 189.274 101.84 189.41 102.173C189.504 102.342 189.656 102.472 189.837 102.539C191.024 103.121 192.417 103.355 193.395 104.244C193.752 104.57 194.095 104.999 194.579 105.024C194.835 105.009 195.086 104.953 195.324 104.858C196.081 104.655 196.89 104.815 197.511 105.293C197.684 105.461 197.886 105.599 198.106 105.7C198.291 105.748 198.483 105.76 198.672 105.734C199.201 105.697 199.762 105.65 200.236 105.885C200.711 106.119 201.1 106.672 201.654 106.711C201.925 106.731 202.247 106.642 202.505 106.667C202.65 106.671 202.783 106.745 202.863 106.864C202.921 107 202.96 107.143 202.98 107.289C203.081 107.637 203.424 107.849 203.647 108.135C203.99 108.574 204.04 109.172 204.005 109.727C203.892 111.463 203.114 113.09 201.83 114.272C201.466 114.642 201.001 114.9 200.492 115.012C199.97 115.121 199.436 114.885 199.166 114.427C199.111 114.235 199.027 114.052 198.918 113.885C198.519 113.448 197.622 113.912 197.255 113.445C197.027 113.154 197.19 112.688 196.972 112.387C196.754 112.086 196.227 112.14 195.823 112.123C195.348 112.098 194.909 111.876 194.45 111.76C193.705 111.568 192.926 111.639 192.163 111.587C191.53 111.532 190.901 111.433 190.282 111.291L187.124 110.65C185.113 110.242 183.095 109.83 181.181 109.102C180.449 108.826 179.711 108.486 179.195 107.893C178.779 107.373 178.511 106.751 178.42 106.092C177.971 103.459 180.354 101.209 180.655 98.556C180.761 97.5887 181.151 96.6757 181.519 95.7775C182.192 94.1719 182.864 92.5655 183.534 90.9583C183.643 90.659 183.784 90.3728 183.956 90.1045C184.242 89.761 184.564 89.4491 184.917 89.1743C185.858 88.3257 186.533 87.2256 186.861 86.0059C186.885 85.8702 186.942 85.7423 187.027 85.6333C187.115 85.56 187.212 85.4978 187.315 85.4482C187.68 85.2121 187.835 84.7583 187.69 84.3501C188.009 84.324 188.26 84.0701 188.281 83.753C188.263 83.6195 188.271 83.4835 188.306 83.3532C188.365 83.2249 188.514 83.1608 188.601 83.0472C188.743 82.8622 188.693 82.6031 188.671 82.3711C188.656 82.2243 188.656 82.0763 188.671 81.9294C188.725 81.407 188.96 80.9195 189.336 80.5501C189.929 79.9702 190.773 80.1207 191.592 79.9825C192.41 79.8071 193.208 79.5534 193.976 79.225C196.13 78.3813 198.398 77.8599 200.706 77.6778C203.025 77.4964 205.355 77.8653 207.503 78.7537C207.815 78.8795 208.11 79.0453 208.379 79.2472C208.57 79.3937 208.727 79.5798 208.838 79.7925C208.93 80.0538 209.043 80.307 209.176 80.5501C209.441 80.9103 209.943 81.0263 210.233 81.3668C210.524 81.7074 210.549 82.2823 210.789 82.7043C211.134 83.3063 211.934 83.5852 212.172 84.2391C212.247 84.4464 212.257 84.6734 212.311 84.8881C212.445 85.426 212.847 85.8504 213.202 86.2748C214.504 87.822 215.337 89.7045 215.605 91.7035C215.685 90.4525 216.531 89.3445 217.591 88.6536C217.877 88.4685 218.207 88.2637 218.264 87.9281C218.336 87.5037 217.922 87.1262 217.949 86.6943C217.979 86.4836 218.065 86.2842 218.197 86.1169C218.67 85.4354 219.189 84.7864 219.751 84.1749C220.056 83.8418 220.399 83.4347 220.272 82.9954C220.176 82.6672 219.838 82.4748 219.652 82.1885C219.43 81.8396 219.44 81.3925 219.677 81.0534C219.85 80.819 220.126 80.6488 220.21 80.3699C220.307 80.0417 220.091 79.6864 220.158 79.3483C220.249 79.0776 220.429 78.8454 220.67 78.6895C220.999 78.3914 221.373 78.1466 221.779 77.964C222.435 77.7173 223.165 77.8086 223.86 77.9048C225.021 78.0652 226.325 78.312 226.98 79.2793C227.4 79.8838 227.613 80.8017 227.3 81.4483Z" fill="#6E6E6E"/>
<path opacity="0.1" d="M232.672 79.8688C232.657 80.2513 232.61 80.6782 232.312 80.9176C232.052 81.0826 231.744 81.1547 231.438 81.1224H231.371C231.473 80.6091 232.101 80.3155 232.21 79.7948C232.248 79.4716 232.149 79.1471 231.937 78.8991C231.406 78.1859 230.552 77.7911 229.703 77.5024C227.304 76.6849 224.734 76.4939 222.24 76.9472C221.562 77.057 220.902 77.2589 220.279 77.5468C220.073 77.6751 219.874 77.8153 219.683 77.9663C219.534 77.7164 219.44 77.438 219.405 77.1496C219.406 76.8621 219.506 76.5832 219.688 76.3599C220.097 75.8787 220.683 75.5794 221.314 75.5283C221.94 75.48 222.569 75.5133 223.186 75.627L229.298 76.5006C229.77 76.5672 230.244 76.6338 230.708 76.7473C231.149 76.8233 231.564 77.0045 231.919 77.2754C232.649 77.8775 232.709 78.9361 232.672 79.8688Z" fill="#2C2C2C"/>
<path opacity="0.1" d="M206.258 110.206C205.884 111.633 204.757 112.743 204.178 114.103C203.307 116.139 203.699 118.628 202.468 120.469C202.068 121.028 201.585 121.523 201.035 121.937C200.73 122.195 200.397 122.418 200.042 122.601C199.674 122.803 199.242 122.856 198.836 122.749C198.312 122.572 197.997 122.009 197.945 121.466C197.926 121.288 197.926 121.108 197.945 120.931L197.96 120.97C198.175 121.488 198.528 122.031 199.084 122.122C199.506 122.153 199.921 122.007 200.231 121.72C201.05 121.066 201.527 120.092 201.981 119.151C202.337 118.474 202.618 117.759 202.82 117.022C202.919 116.602 202.967 116.173 203.068 115.754C203.54 113.715 205.146 112.052 205.501 109.987C205.53 109.845 205.537 109.699 205.521 109.555C205.474 109.367 205.402 109.186 205.308 109.017C205.221 108.826 205.158 108.626 205.119 108.42C205.615 108.598 206.142 108.871 206.298 109.37C206.362 109.647 206.349 109.936 206.258 110.206Z" fill="#2C2C2C"/>
<path opacity="0.1" d="M202.511 106.667C202.281 107.264 201.894 107.789 201.391 108.187C200.684 108.722 199.857 109.078 198.981 109.223C198.573 109.327 198.145 109.322 197.739 109.209C197.188 109.019 196.791 108.505 196.228 108.357C195.825 108.249 195.393 108.345 194.986 108.286C194.254 108.185 193.686 107.629 193.095 107.185C191.285 105.833 188.909 105.396 187.1 104.044C187.019 103.995 186.952 103.926 186.906 103.844C186.871 103.756 186.858 103.66 186.869 103.565C186.875 102.745 187.061 101.936 187.412 101.194C187.7 100.676 188.043 100.191 188.435 99.7455C190.056 97.7714 191.685 95.7825 193.626 94.1169C194.44 93.4186 195.329 92.7672 196.357 92.4513C196.928 92.2761 198.055 92.1108 198.75 92.4069C198.647 92.4765 198.555 92.5594 198.474 92.6536C198.253 92.9611 198.085 93.3031 197.978 93.6654C196.933 96.3674 194.135 97.7541 191.901 99.595L189.86 101.275C189.582 101.505 189.274 101.84 189.411 102.174C189.505 102.342 189.656 102.472 189.838 102.539C191.024 103.121 192.417 103.356 193.395 104.244C193.753 104.57 194.095 104.999 194.579 105.024C194.835 105.009 195.086 104.953 195.324 104.858C196.081 104.655 196.891 104.815 197.511 105.293C197.685 105.461 197.886 105.599 198.107 105.7C198.291 105.748 198.484 105.76 198.673 105.734C199.202 105.697 199.763 105.65 200.237 105.885C200.711 106.119 201.101 106.672 201.654 106.711C201.93 106.731 202.253 106.637 202.511 106.667Z" fill="black"/>
<path d="M179.679 73.1774C179.207 73.4785 178.706 73.819 178.512 74.3421C178.353 74.769 178.428 75.2576 178.237 75.6722C178.045 76.0867 177.616 76.3754 177.522 76.8196C177.455 77.1428 177.586 77.4834 177.522 77.8066C177.466 77.9747 177.42 78.1462 177.385 78.3199C177.36 78.6875 177.678 78.9861 177.988 79.1909C179.328 80.057 181.002 80.2401 182.499 79.6844C183.162 79.4377 183.76 79.0355 184.396 78.7196C185.016 78.3648 185.724 78.1935 186.439 78.2261C186.848 78.2705 187.241 78.4186 187.65 78.4729C188.061 78.5535 188.485 78.428 188.785 78.1373C188.911 77.9638 188.996 77.7637 189.033 77.5525C189.378 76.1978 189.222 74.7616 188.894 73.3995C188.566 72.0374 188.07 70.7271 187.72 69.3724C187.471 68.3681 187.28 67.3391 186.866 66.3891C186.451 65.4391 185.754 64.5557 184.778 64.193C184.701 64.1555 184.614 64.1441 184.53 64.1609C184.467 64.1868 184.412 64.2275 184.368 64.2793C183.597 65.0921 183.015 66.0646 182.665 67.1269C182.276 68.3089 182.169 69.5624 181.811 70.7493C181.657 71.2428 181.459 71.9042 181.067 72.2817C180.674 72.6592 180.123 72.8937 179.679 73.1774Z" fill="#3F3D56"/>
<path opacity="0.1" d="M189.04 77.5452C188.999 77.7571 188.909 77.957 188.78 78.13C188.481 78.4217 188.055 78.5468 187.645 78.4631C187.238 78.4138 186.846 78.2632 186.436 78.2164C185.722 78.1835 185.013 78.3548 184.393 78.7099C183.758 79.0257 183.152 79.4181 182.494 79.6722C181.532 80.035 180.48 80.0944 179.483 79.8425C178.953 79.7102 178.449 79.4899 177.993 79.1911C177.68 78.9887 177.365 78.6975 177.39 78.32C177.425 78.147 177.47 77.9765 177.527 77.8092C177.591 77.486 177.462 77.1454 177.527 76.8222C177.621 76.378 178.053 76.0819 178.242 75.6723C178.43 75.2627 178.358 74.7716 178.515 74.3447C178.708 73.8191 179.212 73.4811 179.684 73.1776C180.156 72.874 180.717 72.6421 181.094 72.2744C181.143 72.2172 181.187 72.1562 181.225 72.0918C181.498 71.6746 181.697 71.2151 181.816 70.7322C182.181 69.5428 182.281 68.2917 182.668 67.1073C183.019 66.046 183.601 65.0745 184.373 64.2622C184.414 64.2091 184.469 64.1684 184.532 64.1437C184.616 64.1267 184.703 64.1371 184.78 64.1733C185.753 64.5385 186.451 65.4219 186.868 66.372C187.285 67.322 187.461 68.346 187.722 69.3528C188.07 70.7075 188.569 72.0227 188.896 73.3824C189.224 74.742 189.385 76.188 189.04 77.5452Z" fill="black"/>
<path opacity="0.1" d="M196.423 47.4499C194.006 48.2134 191.398 47.043 190.376 44.7356C190.395 44.5044 190.428 44.2744 190.475 44.0471C190.724 42.912 191.786 43.3266 192.625 43.6276C193.635 43.9539 194.612 44.3743 195.542 44.8836C195.825 45.0287 196.072 45.2365 196.262 45.4907C196.629 46.036 196.483 46.7615 196.423 47.4499Z" fill="black"/>
<path d="M194.923 47.4358C197.665 47.4358 199.888 45.2262 199.888 42.5006C199.888 39.775 197.665 37.5654 194.923 37.5654C192.181 37.5654 189.958 39.775 189.958 42.5006C189.958 45.2262 192.181 47.4358 194.923 47.4358Z" fill="#FBBEBE"/>
<path opacity="0.1" d="M208.396 79.3809C208.396 79.7905 207.837 79.9213 207.423 79.8991C205.933 79.8127 204.476 79.4056 203.002 79.5289C201.137 79.6967 199.424 80.7208 197.555 80.8146C196.835 80.8516 196.103 80.7455 195.393 80.8762C194.474 81.0465 193.655 81.6017 192.719 81.6807C191.908 81.7498 191.106 81.4463 190.294 81.4783C189.726 81.5119 189.173 81.6686 188.673 81.9373C188.727 81.4149 188.962 80.9273 189.338 80.5579C189.931 79.978 190.775 80.1286 191.595 79.9904C192.412 79.8149 193.21 79.5613 193.978 79.2328C196.132 78.3892 198.4 77.8678 200.708 77.6857C203.026 77.5023 205.355 77.8685 207.502 78.7541C207.815 78.88 208.11 79.0458 208.379 79.2476C208.392 79.2906 208.398 79.3357 208.396 79.3809Z" fill="black"/>
<path d="M192.628 51.5116L190.617 50.7713L189.768 50.4604C189.422 50.3163 189.058 50.2201 188.686 50.1742C187.712 50.1001 186.796 50.7442 186.278 51.5659C185.759 52.3876 185.563 53.3672 185.396 54.3222C185.168 55.6283 184.974 56.9395 184.815 58.2555C184.644 59.4439 184.557 60.6429 184.555 61.8434C184.612 64.8982 185.262 67.9112 185.977 70.8846C186.327 72.203 186.592 73.5424 186.769 74.8944C186.829 75.4521 186.856 76.0122 186.916 76.5724C186.98 77.2016 187.084 77.8234 187.189 78.4477L187.787 81.9937C188.532 81.4681 189.378 81.0066 190.294 80.9795C191.106 80.9499 191.91 81.2509 192.72 81.1818C193.65 81.1053 194.475 80.5501 195.393 80.3799C196.103 80.2491 196.835 80.3527 197.558 80.3182C199.425 80.2244 201.14 79.1979 203.002 79.0326C204.479 78.8993 205.946 79.3139 207.426 79.4002C207.838 79.4249 208.396 79.2941 208.396 78.882C208.396 78.5958 208.108 78.4058 207.858 78.2627C206.676 77.5552 205.551 76.7574 204.494 75.8765C203.516 75.1066 202.523 74.317 201.85 73.2757C200.229 70.7711 200.785 67.3831 199.402 64.7403C198.278 62.5935 199.402 59.7805 199.402 57.3598C199.402 56.1531 199.402 54.9317 199.117 53.7596C198.938 53.1039 198.716 52.4611 198.452 51.8348L197.486 49.4043C197.466 49.3332 197.426 49.2691 197.372 49.2192C197.307 49.1748 197.229 49.1514 197.151 49.1526C196.571 49.118 195.999 49.3001 195.547 49.6634C195.093 50.031 194.802 50.5591 194.355 50.9416C193.866 51.3635 193.236 51.7337 192.628 51.5116Z" fill="#E3E8F4"/>
<path d="M214.203 66.5198C214.448 66.2829 214.669 66.0226 214.863 65.7425C215.072 65.3956 215.238 65.0254 215.359 64.6395L216.799 60.5803C217.028 59.9388 217.256 59.2947 217.544 58.6704C217.842 57.9968 218.194 57.3478 218.52 56.6964C219.356 54.9819 220.003 53.1825 220.448 51.3294C220.527 51.0747 220.553 50.807 220.525 50.5422C220.456 50.1153 220.131 49.7822 219.82 49.4787C219.508 49.1436 219.153 48.8517 218.763 48.6101C218.367 48.3655 217.89 48.2893 217.437 48.3979C216.802 48.5829 216.402 49.2294 216.256 49.8784C216.109 50.5274 216.164 51.1912 216.102 51.8525C216.012 52.8 215.685 53.7155 215.605 54.6655C215.563 55.2158 215.605 55.771 215.538 56.3188C215.416 57.0381 215.164 57.7295 214.793 58.3595C213.987 59.8601 212.897 61.1921 211.584 62.283C211.224 62.547 210.9 62.8564 210.62 63.2034C210.387 63.5503 210.229 63.9422 210.156 64.3533C209.991 64.9795 210.063 65.6438 210.357 66.2212C210.762 66.9072 211.539 67.2083 212.281 67.3613C213.284 67.5685 213.515 67.228 214.203 66.5198Z" fill="#FBBEBE"/>
<path d="M194.954 35.3498C195.391 34.5338 196.276 34.0566 197.203 34.1382C198.134 34.3021 198.89 34.9777 199.154 35.8804C199.271 36.248 199.318 36.6552 199.522 36.971C199.829 37.4473 200.4 37.5855 200.827 37.9309C201.342 38.4064 201.643 39.0682 201.661 39.7668C201.685 40.473 201.573 41.1775 201.331 41.842C201.229 42.1256 201.146 42.4157 201.083 42.7106C201.033 42.9969 201.028 43.288 200.984 43.5743C200.872 44.3242 200.462 44.9976 199.844 45.4422C199.757 45.5128 199.649 45.552 199.536 45.5533C199.343 45.5311 199.224 45.3065 199.152 45.1042C198.757 43.9716 198.851 42.5872 198.124 41.6841C197.793 41.3199 197.393 41.0238 196.947 40.8131C196.765 40.6966 196.56 40.6198 196.346 40.5885C196.032 40.6053 195.729 40.7153 195.478 40.9044C194.953 41.2538 194.372 41.5092 193.76 41.6594C193.141 41.8053 192.488 41.6656 191.985 41.2794C191.642 40.9981 191.391 40.5762 191.012 40.3565C190.632 40.1369 190.235 40.1493 189.86 39.9987C188.993 39.6323 188.589 38.6369 188.958 37.7752C189.013 37.6462 189.084 37.5243 189.17 37.4127C189.418 37.1166 189.785 36.9488 190.006 36.6206C190.292 36.1962 190.267 35.6139 190.403 35.1055C190.567 34.4531 191.038 33.9191 191.667 33.6719C192.28 33.4651 192.957 33.606 193.434 34.0395C193.683 34.2616 193.881 34.5479 194.125 34.7798C194.613 35.2442 195.305 35.43 195.962 35.2733" fill="#2C2C2C"/>
<path opacity="0.1" d="M199.035 71.6699C198.739 71.9317 198.634 72.3468 198.771 72.7162C198.826 72.8322 201.388 72.3411 201.659 72.3041C202.334 72.2079 203.518 72.2547 203.972 71.6403C204.782 70.5521 202.274 70.7939 201.815 70.8334C200.941 70.9074 199.7 71.0259 199.035 71.6699Z" fill="black"/>
<path d="M175.729 39.8379C175.619 40.3245 175.556 40.8203 175.54 41.3185C174.796 41.469 174.021 41.2222 173.306 40.9755L171.253 40.2796C170.994 40.115 170.651 40.1787 170.469 40.4252C170.138 40.7657 169.684 41.4122 169.227 41.7947C169.154 41.7871 169.081 41.7713 169.011 41.7478C168.666 41.6047 168.719 41.0742 168.967 40.7954C169.215 40.5165 169.582 40.3611 169.808 40.0551C169.913 39.8735 170.031 39.6995 170.161 39.5344C170.327 39.3928 170.526 39.2936 170.739 39.2457C172.171 38.8262 173.686 38.7695 175.146 39.0804C175.394 39.1347 175.677 39.2334 175.751 39.4727C175.776 39.5944 175.768 39.72 175.729 39.8379Z" fill="#3F3D56"/>
<path opacity="0.1" d="M175.729 39.8379C175.619 40.3245 175.556 40.8203 175.54 41.3185C174.796 41.469 174.021 41.2222 173.306 40.9755L171.253 40.2796C170.994 40.115 170.651 40.1787 170.469 40.4252C170.138 40.7657 169.684 41.4122 169.227 41.7947C169.154 41.7871 169.081 41.7713 169.011 41.7478C168.666 41.6047 168.719 41.0742 168.967 40.7954C169.215 40.5165 169.582 40.3611 169.808 40.0551C169.913 39.8735 170.031 39.6995 170.161 39.5344C170.327 39.3928 170.526 39.2936 170.739 39.2457C172.171 38.8262 173.686 38.7695 175.146 39.0804C175.394 39.1347 175.677 39.2334 175.751 39.4727C175.776 39.5944 175.768 39.72 175.729 39.8379Z" fill="black"/>
<path opacity="0.1" d="M194.51 86.6849C194.867 86.8033 195.254 86.9761 195.376 87.3314L192.501 86.6059L191.012 86.2284C190.749 86.1618 189.805 86.0853 189.632 85.8805C189.383 85.5794 190.265 85.7867 190.424 85.8089C190.905 85.8805 191.387 85.9545 191.866 86.0409C192.77 86.2013 193.638 86.4653 194.51 86.6849Z" fill="black"/>
<path opacity="0.1" d="M195.624 89.2138C195.376 89.0485 194.663 89.0682 194.358 88.9966C193.911 88.8905 193.472 88.7499 193.032 88.6142C192.141 88.3255 191.257 87.9973 190.341 87.785C190.173 87.748 189.597 87.7382 189.624 87.526C189.651 87.3137 190.2 87.2397 190.336 87.2298C191.148 87.1706 192.161 87.5482 192.916 87.8171C193.878 88.1594 194.789 88.6292 195.624 89.2138Z" fill="black"/>
<path opacity="0.1" d="M193.802 84.4299C192.891 84.1832 192.065 83.6206 191.126 83.512C190.882 83.5211 190.641 83.4481 190.444 83.3047C190.333 83.1969 190.257 83.0599 190.223 82.9099C190.851 82.8778 191.581 83.1418 192.152 83.3911C192.466 83.5251 192.768 83.6852 193.055 83.8698C193.264 83.9956 193.576 84.3584 193.802 84.4299Z" fill="black"/>
<path d="M195.872 50.1106C196.031 49.4344 196.202 48.7312 196.656 48.2031C197.111 47.675 197.94 47.3962 198.526 47.7738C199.191 48.2031 199.218 49.1951 199.787 49.7478C200.283 50.2216 201.028 50.2586 201.703 50.3203C202.918 50.4301 204.11 50.7092 205.246 51.1494C205.467 51.2178 205.669 51.3379 205.834 51.4998C206.144 51.8502 206.082 52.3881 206.236 52.8249C206.447 53.3875 207.031 53.7453 207.257 54.3054C207.505 54.9273 207.257 55.6231 207.048 56.2622C206.673 57.4097 206.437 58.6015 206.072 59.7539C205.708 60.9062 205.189 62.0413 204.335 62.9099C203.957 63.2949 203.396 63.6502 202.9 63.4207L202.709 64.7902C202.653 65.0797 202.653 65.3768 202.709 65.6662C202.768 65.9616 202.991 66.1975 203.285 66.2732C203.322 66.4854 203.548 66.5866 203.732 66.7026C204.297 67.0873 204.442 67.8549 204.055 68.4176C204.053 68.4218 204.05 68.426 204.047 68.4299C203.89 68.6396 203.66 68.805 203.585 69.0542C203.473 69.4145 203.739 69.7945 204.062 69.9919C204.384 70.1893 204.764 70.2806 205.092 70.4706C205.772 70.8605 206.137 71.6279 206.37 72.3731C206.544 72.9357 206.688 73.5452 207.115 73.9548C207.279 74.1103 207.475 74.2287 207.631 74.3916C207.902 74.7094 208.058 75.1082 208.076 75.5242C208.144 76.0399 208.03 76.5633 207.753 77.0048C207.257 77.7105 206.331 77.9202 205.519 78.2385C204.201 78.7765 203.116 79.7388 201.954 80.5581C201.481 80.9369 200.923 81.1974 200.328 81.3181C199.524 81.4242 198.732 81.0713 197.923 81.0392C197.438 81.0437 196.957 81.1066 196.488 81.2268L194.998 81.5476C195.078 80.4001 194.442 79.2503 194.087 78.1571C193.417 76.0991 193.293 73.8981 193.452 71.7414C193.611 69.5847 194.052 67.4577 194.489 65.3405C194.795 63.8599 194.765 62.3128 195.234 60.8742C195.673 59.4898 196.301 58.1598 196.532 56.7187C196.91 54.3869 195.341 52.4103 195.872 50.1106Z" fill="#2C2C2C"/>
<path d="M207.165 54.6736C207.302 54.9243 207.399 55.195 207.451 55.4756C207.566 55.9104 207.781 56.3123 208.079 56.6501C208.329 56.869 208.55 57.1177 208.739 57.3904C208.968 57.8198 208.881 58.3429 208.988 58.8117C209.112 59.3225 209.472 59.7667 209.524 60.2923C209.525 60.4428 209.539 60.5931 209.566 60.7414C209.727 61.3386 210.611 61.4817 210.807 62.0788C210.939 62.4662 210.713 62.8882 210.755 63.2953C210.786 63.4212 210.794 63.5517 210.777 63.6803C210.721 63.8256 210.623 63.9512 210.494 64.0406C209.673 64.8208 209.104 65.8268 208.861 66.9301C208.622 68.0274 208.496 69.146 208.486 70.2687L207.515 68.993C207.413 68.8383 207.281 68.7043 207.128 68.5982C207.004 68.5242 206.86 68.4871 206.734 68.4131C206.366 68.2058 206.222 67.7666 206.081 67.3718C205.688 66.2789 205.099 65.2657 204.343 64.3811C203.948 63.9197 203.489 63.4557 203.402 62.8561C203.376 62.5807 203.391 62.3029 203.447 62.0319C203.695 60.4157 203.961 58.7599 204.752 57.3263C205.122 56.6551 205.602 56.0481 205.956 55.367C206.195 54.9154 206.53 53.7409 207.165 54.6736Z" fill="#2C2C2C"/>
<path d="M182.675 56.2252C182.679 56.4329 182.626 56.6377 182.521 56.8174C182.327 57.0402 182.024 57.1357 181.736 57.0641C181.454 56.9936 181.188 56.8697 180.952 56.6989C180.26 56.2646 179.568 55.8296 178.877 55.3936C178.49 55.1621 178.118 54.9084 177.762 54.6336C177.218 54.1766 176.724 53.6628 176.29 53.1012C175.083 51.6206 174.016 50.0142 172.673 48.6595C172.308 48.2894 171.928 47.9341 171.576 47.5467C171.094 46.9868 170.651 46.3948 170.25 45.7749C169.863 45.2049 169.461 44.5732 169.528 43.8922C169.567 43.5072 169.754 43.1519 169.808 42.7694C169.863 42.3869 169.716 41.9206 169.344 41.8169C169.3 41.8058 169.255 41.7984 169.21 41.7947C169.136 41.7871 169.064 41.7713 168.994 41.7478C168.649 41.6047 168.701 41.0742 168.949 40.7953C169.197 40.5165 169.565 40.3611 169.791 40.0551C169.896 39.8735 170.014 39.6995 170.143 39.5344C170.31 39.3928 170.508 39.2936 170.722 39.2457C172.154 38.8262 173.668 38.7695 175.128 39.0804C175.376 39.1347 175.659 39.2334 175.734 39.4727C175.764 39.5894 175.764 39.7113 175.734 39.8281C175.624 40.3147 175.561 40.8104 175.545 41.3086C175.545 41.4125 175.551 41.5164 175.563 41.6195C175.679 42.6658 176.362 43.5516 177.027 44.3684C177.817 45.3406 178.618 46.3055 179.423 47.2678C179.858 47.8255 180.344 48.3417 180.875 48.8101C181.371 49.2197 182.014 49.5503 182.402 50.0759C182.717 50.5004 182.615 51.0802 182.65 51.591C182.766 53.1333 182.774 54.6817 182.675 56.2252Z" fill="#2C2C2C"/>
<path d="M211.169 62.335C210.85 64.4556 212.147 66.4872 214.212 67.1048C214.091 67.6896 213.483 68.0129 213.053 68.4299C212.447 69.0147 212.135 69.8907 211.42 70.3349C210.623 70.8284 209.597 70.6359 208.689 70.4286C208.606 70.4195 208.53 70.3798 208.475 70.3176C208.457 70.288 208.443 70.2554 208.436 70.2214C208.135 69.1282 207.939 67.9611 208.247 66.8654C208.495 65.9327 209.091 65.1381 209.568 64.314C210.044 63.4898 210.089 62.6064 211.169 62.335Z" fill="#2C2C2C"/>
<path d="M188.974 48.1858C188.013 48.2554 187.08 48.5377 186.243 49.0125C185.687 49.3283 185.116 49.7528 184.48 49.6763C184.105 49.6343 183.736 49.4295 183.371 49.5282C183.165 49.6106 182.973 49.7239 182.802 49.8638C182.626 50.0037 182.388 50.041 182.177 49.9625L181.928 53.3776C181.834 54.6756 181.742 56.0007 182.055 57.2665C182.216 57.913 182.571 58.5003 182.611 59.1567C182.651 59.8131 182.591 60.4867 182.638 61.1505C182.683 61.7649 182.82 62.3695 182.854 62.9839C182.924 64.1437 182.636 65.2936 182.358 66.4213C181.938 68.0844 181.685 69.7846 180.868 71.2898C180.64 71.7069 180.372 72.1313 180.372 72.605C180.372 72.6643 180.372 72.721 180.387 72.7778C180.138 72.9135 179.908 73.0418 179.697 73.1751C179.225 73.4786 178.721 73.8166 178.527 74.3422C178.371 74.7691 178.443 75.2577 178.254 75.6698C178.066 76.0819 177.634 76.3755 177.539 76.8197C177.472 77.1429 177.601 77.4835 177.539 77.8067C177.483 77.974 177.437 78.1445 177.403 78.3175C177.378 78.6876 177.693 78.9862 178.006 79.1886C178.462 79.4874 178.966 79.7077 179.495 79.84L180.978 73.9918C182.329 71.5085 183.453 68.9096 184.336 66.2263C184.589 65.3494 184.914 64.4943 185.307 63.6699C185.588 63.2036 185.837 62.7189 186.052 62.219C186.278 61.5972 186.3 60.9235 186.409 60.2671C186.539 59.5009 186.734 58.7473 186.993 58.0142C187.261 57.2221 187.571 56.4325 187.626 55.6009C187.707 54.4115 187.273 53.1555 187.735 52.055C187.931 51.6432 188.186 51.2617 188.492 50.9224C189.132 50.1426 189.716 49.3259 190.356 48.5461C190.024 48.1932 189.47 48.1562 188.974 48.1858Z" fill="#2C2C2C"/>
<g opacity="0.1">
<path opacity="0.1" d="M195.968 34.5381L195.658 34.5603L195.623 34.585C195.739 34.5803 195.855 34.5645 195.968 34.5381Z" fill="black"/>
<path opacity="0.1" d="M201.648 39.661C201.596 40.1515 201.49 40.6349 201.331 41.102C201.228 41.3856 201.145 41.6758 201.082 41.9706C201.033 42.2569 201.028 42.5481 200.983 42.8343C200.872 43.5842 200.461 44.2576 199.844 44.7022C199.756 44.7728 199.648 44.8121 199.536 44.8133C199.342 44.7911 199.223 44.5665 199.151 44.3642C198.756 43.2316 198.851 41.8473 198.123 40.9441C197.792 40.5799 197.392 40.2838 196.946 40.0731C196.765 39.9566 196.56 39.8799 196.346 39.8485C196.031 39.8653 195.728 39.9753 195.477 40.1644C194.953 40.5138 194.371 40.7692 193.759 40.9194C193.14 41.0653 192.488 40.9256 191.984 40.5394C191.641 40.2581 191.391 39.8362 191.011 39.6166C190.631 39.3969 190.234 39.4093 189.859 39.2588C189.385 39.0574 189.028 38.6522 188.891 38.1582C188.882 38.1274 188.876 38.096 188.871 38.0645C188.809 38.3398 188.816 38.6263 188.891 38.8985C189.028 39.3925 189.385 39.7977 189.859 39.999C190.234 40.1496 190.656 40.152 191.011 40.3568C191.366 40.5616 191.641 40.9984 191.984 41.2797C192.488 41.6659 193.14 41.8056 193.759 41.6597C194.371 41.5094 194.953 41.254 195.477 40.9046C195.728 40.7156 196.031 40.6056 196.346 40.5888C196.56 40.6201 196.765 40.6969 196.946 40.8133C197.387 41.0283 197.781 41.3266 198.106 41.6918C198.833 42.5949 198.739 43.9792 199.134 45.1119C199.206 45.3167 199.325 45.5388 199.518 45.561C199.638 45.5615 199.753 45.5195 199.844 45.4425C200.464 44.9966 200.876 44.32 200.985 43.5672C201.03 43.2809 201.035 42.9897 201.085 42.7035C201.148 42.4086 201.231 42.1184 201.333 41.8349C201.575 41.1704 201.687 40.4659 201.663 39.7597C201.658 39.7301 201.653 39.6955 201.648 39.661Z" fill="black"/>
</g>
<path d="M185.942 59.46L185.773 61.7129C185.748 62.0188 185.16 69.3032 180.82 77.8163C177.097 85.1179 169.85 94.628 156.169 99.9728C155.102 100.392 153.994 100.784 152.845 101.147L151.564 97.1498C154.78 96.1438 157.878 94.797 160.804 93.1326C167.777 89.1302 173.199 83.4177 176.98 76.0668C178.986 72.153 180.415 67.9729 181.225 63.6549H165.66V59.46H185.942Z" fill="#05838B"/>
<path opacity="0.1" d="M154.494 99.9761C168.172 94.6314 175.421 85.1238 179.142 77.8222C183.482 69.309 184.073 62.0296 184.095 61.7187L184.264 59.4658H186.001L185.833 61.7187C185.81 62.0247 185.22 69.309 180.88 77.8222C177.156 85.1238 169.91 94.6314 156.232 99.9761C155.164 100.396 154.055 100.788 152.905 101.153L152.736 100.628C153.336 100.415 153.921 100.198 154.494 99.9761Z" fill="white"/>
<path d="M127.108 97.1498L125.827 101.147C124.677 100.782 123.568 100.39 122.5 99.9703C108.822 94.6255 101.573 85.1179 97.8518 77.8163C93.5124 69.3032 92.9216 62.0238 92.8993 61.7129L92.7305 59.46H113.002V63.6549H97.4347C98.2485 67.9736 99.6824 72.1535 101.692 76.0668C105.473 83.4177 110.892 89.1302 117.865 93.1301C120.792 94.7963 123.891 96.1438 127.108 97.1498Z" fill="#05838B"/>
<path opacity="0.1" d="M124.174 99.9761C110.495 94.6314 103.246 85.1238 99.5251 77.8222C95.1857 69.309 94.5949 62.0296 94.5726 61.7187L94.4037 59.4658H92.666L92.8348 61.7187C92.8572 62.0247 93.448 69.309 97.7874 77.8222C101.511 85.1238 108.757 94.6314 122.436 99.9761C123.503 100.396 124.612 100.788 125.762 101.153L125.931 100.628C125.334 100.415 124.748 100.198 124.174 99.9761Z" fill="white"/>
<path d="M162.754 135.792V158.413H115.917V135.792L117.406 133.818C132.584 128.464 135.66 114.5 136.273 108.975C136.365 108.211 136.417 107.443 136.43 106.675H142.221C142.234 107.443 142.286 108.211 142.378 108.975C143.001 114.5 146.077 128.468 161.244 133.818L162.754 135.792Z" fill="#05838B"/>
<path opacity="0.1" d="M162.754 135.793H115.917V138.631H162.754V135.793Z" fill="black"/>
<path opacity="0.1" d="M119.889 133.818C135.067 128.464 138.143 114.5 138.756 108.975C138.847 108.211 138.899 107.443 138.912 106.675H136.43C136.417 107.443 136.365 108.211 136.273 108.975C135.65 114.5 132.574 128.468 117.406 133.818L115.917 135.792V158.413H118.399V135.792L119.889 133.818Z" fill="white"/>
<path opacity="0.1" d="M108.802 59.46H113.002V63.6549H109.174C109.024 62.273 108.9 60.8746 108.802 59.46Z" fill="black"/>
<path opacity="0.1" d="M127.107 97.1496L125.826 101.147C124.676 100.782 123.567 100.39 122.5 99.97C120.744 97.8385 119.192 95.5486 117.865 93.1299C120.792 94.796 123.89 96.1435 127.107 97.1496Z" fill="black"/>
<path opacity="0.1" d="M151.562 97.15C154.778 96.144 157.876 94.7972 160.802 93.1328C159.474 95.5518 157.923 97.8424 156.167 99.9754C155.1 100.395 153.992 100.787 152.843 101.15L151.562 97.15Z" fill="black"/>
<path opacity="0.1" d="M169.866 59.46C169.768 60.8746 169.644 62.273 169.493 63.6549H165.668V59.46H169.866Z" fill="black"/>
<path opacity="0.1" d="M142.388 108.975C140.372 109.363 138.299 109.363 136.283 108.975C136.375 108.211 136.427 107.443 136.44 106.675H142.231C142.244 107.443 142.297 108.211 142.388 108.975Z" fill="black"/>
<path d="M109.298 52.5107C109.405 83.6171 122.81 108.772 139.336 108.772C155.862 108.772 169.264 83.6171 169.374 52.5107H109.298Z" fill="#05838B"/>
<path opacity="0.1" d="M114.635 52.5107H109.298C109.405 83.6171 122.81 108.772 139.336 108.772C140.23 108.77 141.123 108.695 142.004 108.547C126.727 106.01 114.737 81.9243 114.635 52.5107Z" fill="white"/>
<path d="M155.264 144.451H123.406V152.594H155.264V144.451Z" fill="#2C2C2C"/>
<path opacity="0.1" d="M124.896 145.562H155.264V144.451H123.406V152.594H124.896V145.562Z" fill="white"/>
<path d="M92.3083 82.5449C91.7348 82.3549 88.3587 79.6998 88.103 78.4981C87.8473 77.2964 89.8879 66.1009 89.8879 66.1009C89.8879 66.1009 89.6992 66.1009 89.3914 66.0639V65.8838L89.8109 51.177C89.8109 51.177 91.5313 41.3067 88.2817 41.8816C85.0322 42.4565 87.0703 51.177 87.0703 51.177C87.0703 51.177 86.7004 55.6038 86.4397 56.9314C86.1915 58.2121 85.0545 63.4285 85.829 65.0497C85.8573 65.1072 85.8889 65.1633 85.9234 65.2175C85.9234 65.2175 86.0525 70.7819 84.6499 71.542C83.3118 72.265 82.7557 75.9046 82.7086 76.2304L82.6366 76.2008C82.2371 75.9523 81.8864 75.6337 81.6014 75.2606C81.5716 75.2236 81.5493 75.1841 81.5219 75.1446C83.4161 73.0265 83.3525 69.8161 81.3755 67.774C80.9324 67.3165 80.4123 66.9389 79.8388 66.6586C79.8222 66.1871 79.7097 65.7239 79.5087 65.2965C78.8632 63.9245 75.2885 62.1306 72.7489 62.0886C71.5772 62.0541 70.6164 62.3848 70.2664 63.2953C70.0877 63.7567 70.1423 64.2823 70.0678 64.761C69.9189 65.7481 69.2809 66.5204 68.4617 67.1349C68.1307 66.7677 67.7733 66.4254 67.3917 66.1108C66.5626 65.4791 64.9092 63.3965 64.9092 63.3965C64.9092 63.3965 59.7482 58.0838 59.3659 56.6279C58.9836 55.172 53.8275 46.4294 52.6806 47.9519C51.5337 49.4744 56.6302 56.1097 56.6302 56.1097C56.6302 56.1097 57.5984 58.5205 58.3431 59.3348C59.0879 60.1491 64.7975 68.3909 64.7975 68.3909L65.0706 68.9535C63.8641 69.5852 62.7619 70.3896 62.3722 71.6431C61.8012 73.4889 63.0499 75.3445 63.9138 77.0718C65.5969 80.4425 65.8377 84.7411 63.6655 87.8206C61.7193 90.5399 58.3431 91.8329 55.1829 92.9631C56.7091 94.1544 58.6053 94.7799 60.5451 94.7323C59.8152 96.8347 57.2285 97.5306 55.024 97.9204C56.1809 99.0259 57.8367 99.4281 59.4255 99.6724C60.2037 99.8042 60.9922 99.8661 61.7813 99.8575H61.975L62.1686 99.8427C62.4377 99.8249 62.7056 99.7911 62.9704 99.7415C64.1173 99.5096 65.232 98.8877 65.8178 97.8809C66.3143 97.0198 66.4881 95.8452 67.3892 95.4134C67.6238 95.308 67.8768 95.2485 68.134 95.2382H68.1067C68.2755 95.2382 68.4493 95.2382 68.6181 95.2382L72.374 95.2752C72.5304 95.2752 72.6918 95.2752 72.8532 95.2752C73.9132 95.2505 75.0452 95.0679 75.5839 94.1968C75.8056 93.7739 75.922 93.3043 75.924 92.8273C76.0034 91.6454 75.924 90.4288 75.9562 89.237C76.2765 91.406 76.6116 94.7866 75.8147 96.0352C75.1673 96.9813 74.3826 97.8269 73.4862 98.5447C73.2608 98.733 73.0545 98.943 72.8705 99.1715C72.7489 99.2579 72.6769 99.3047 72.6769 99.3047L72.5999 99.5342C72.3169 99.9609 72.1119 100.434 71.9942 100.931C71.9508 101.059 71.9349 101.194 71.9471 101.328C72.0339 101.503 71.3264 102.226 71.5325 102.53C69.765 104.59 69.4298 107.712 69.4298 107.712L66.2026 112.583C64.5443 116.913 62.0619 117.358 62.0619 117.358C62.0619 117.358 56.2305 113.469 56.0716 113.279C55.9128 113.089 53.6835 112.139 53.6835 112.139C53.4206 111.68 53.0195 111.316 52.5366 111.097C51.772 110.781 51.7075 109.617 51.7075 109.617C51.6131 106.865 49.9871 106.656 49.9871 106.656C48.6764 106.545 47.6759 106.777 46.9064 107.201L46.673 107.218C45.546 107.31 44.1905 107.411 42.7011 107.509C38.5578 107.781 37.5723 110.448 37.5723 110.448C37.5723 110.448 37.0634 111.018 37.7311 111.635C38.3989 112.252 42.6737 111.635 42.855 111.62C42.5293 111.656 42.1996 111.633 41.8818 111.554C42.5546 111.529 43.4806 111.504 44.27 111.504H44.4611C44.4115 111.921 44.3874 112.339 44.3891 112.758C44.3891 113.548 46.5861 114.053 46.5861 114.053L53.2764 119.976C53.2764 119.976 57.4817 121.844 60.1578 124.531C62.8339 127.218 65.1997 124.899 65.1997 124.899C68.0322 124.203 76.1821 114.409 76.1896 114.399C76.1896 114.685 76.3609 124.21 76.6861 126.122C76.699 126.219 76.7231 126.315 76.7581 126.406C77.1404 127.228 76.629 129.473 76.4081 130.421C76.2671 131.214 76.2129 132.02 76.2467 132.824C76.2467 132.824 73.1908 144.422 73.444 145.441C73.6972 146.46 71.7882 151.196 71.7882 151.196V155.144L72.1208 155.126C72.0776 155.19 72.0377 155.256 72.0017 155.324L71.9793 155.366C71.9793 155.366 74.0174 155.807 75.3878 155.682C76.7581 155.556 79.1115 156.73 79.1115 156.73C79.1115 156.73 79.9083 157.105 82.361 157.263C84.8137 157.421 84.8137 156.187 84.8137 156.187C84.5332 154.507 80.658 153.944 80.5389 153.927C80.2261 153.732 79.9332 153.52 79.6924 153.337L79.6427 153.298C79.6589 153.261 79.673 153.223 79.6849 153.184C80.0995 151.506 77.8057 150.779 77.8057 150.779V150.369C79.2952 149.609 79.5906 144.392 79.5906 144.392C79.5906 144.392 81.8248 137.942 82.1376 136.866C82.4504 135.79 82.1376 134.179 82.1376 134.179L82.361 132.787C82.361 132.787 82.8401 131.84 82.8401 131.65C82.9022 131.168 83.0886 130.711 83.3813 130.322C83.7313 129.91 82.999 128.931 82.999 128.931L83.637 127.287V125.483L85.1265 118.939C85.1265 118.939 86.688 111.317 86.1468 108.822C85.6056 106.327 86.7848 105.059 86.7848 105.059C86.6785 105.115 86.5691 105.164 86.4571 105.207C86.6063 104.865 86.7346 104.514 86.8419 104.156L90.1932 104.568V104.617H91.4022C91.4022 104.617 91.0199 99.929 91.0199 98.0389C91.0199 96.1487 92.3083 89.3653 92.3083 89.3653C92.3083 89.3653 92.8817 82.7349 92.3083 82.5449ZM77.4308 77.0718C77.4308 77.2569 77.4135 77.4494 77.401 77.6468L77.334 77.7479L77.2099 77.6443L77.0585 77.8787L77.0138 77.9009C76.6861 77.7331 76.5173 76.7732 76.2814 76.9805L76.2492 77.0077C76.197 76.9484 76.1449 76.9312 76.0903 76.9805L76.0406 77.0225C76.0406 76.9509 76.0406 76.8769 76.0406 76.8028C76.4947 76.9191 76.9619 76.9778 77.4308 76.978C77.4333 77.0101 77.4308 77.0422 77.4308 77.0718ZM88.5771 98.905H88.6491L88.53 99.2159C88.5449 99.1123 88.5597 99.0111 88.5771 98.905ZM76.341 154.862L75.8843 154.749L76.1325 154.707L76.3634 154.857L76.3907 154.877L76.341 154.862ZM81.0081 154.199C80.8566 154.12 80.7027 154.028 80.5538 153.935C80.6034 153.962 80.7995 154.063 81.0081 154.199Z" fill="url(#paint1_linear)"/>
<path d="M90.226 94.2432L87.2198 102.031H87.9496L85.1221 104.271L90.226 104.903V94.2432Z" fill="#F86D70"/>
<path opacity="0.1" d="M90.226 94.2432L87.2198 102.031L86.4626 101.829L85.1221 104.271L90.226 104.903V94.2432Z" fill="black"/>
<path d="M85.5107 99.2248H90.225L91.9553 85.0732H85.5107V99.2248Z" fill="#F86D70"/>
<path opacity="0.1" d="M85.5107 99.2248H90.225L91.9553 85.0732H85.5107V99.2248Z" fill="black"/>
<path d="M76.3042 88.4246L77.322 88.2544L79.6605 87.8596C79.6605 87.8596 86.6834 86.2852 88.1332 86.1569C89.0115 86.0417 89.8679 85.7989 90.6752 85.4364C91.055 85.2735 91.2958 85.1502 91.2958 85.1502L88.7662 80.558L84.8414 77.666C84.8414 77.666 82.3589 77.1404 81.3088 75.7043C80.8327 75.0763 80.7101 74.2508 80.9836 73.513C81.6241 71.539 77.1581 75.4007 77.1581 75.4007C77.1581 75.4007 77.2003 76.3261 77.1581 77.5056C77.1581 77.7375 77.1358 77.9794 77.1184 78.2261C77.1184 78.389 77.0961 78.5518 77.0787 78.7196C76.9695 79.8917 76.746 81.0984 76.3042 81.8189C75.2243 83.5808 76.3042 88.4246 76.3042 88.4246Z" fill="#FBBEBE"/>
<path opacity="0.1" d="M77.1582 77.6045H77.2575C77.4362 77.6045 77.5802 77.2269 77.754 77.2097C79.1516 77.0764 80.4276 76.7852 81.3139 75.8007C80.839 75.1732 80.7166 74.349 80.9887 73.6119C81.6291 71.6379 77.1632 75.4972 77.1632 75.4972C77.1632 75.4972 77.2103 76.425 77.1582 77.6045Z" fill="black"/>
<path d="M71.7207 72.0076C71.7192 74.9937 74.1533 77.4151 77.1573 77.4166C77.1591 77.4166 77.1605 77.4166 77.1623 77.4166C77.341 77.4166 77.5173 77.4166 77.6935 77.3919C80.6844 77.1002 82.8712 74.4538 82.5778 71.4808C82.2844 68.5079 79.6219 66.3342 76.631 66.6258C73.8455 66.8973 71.7214 69.2252 71.7207 72.0076Z" fill="#FBBEBE"/>
<path d="M70.0502 63.7982C69.8715 64.2572 69.9261 64.7705 69.8541 65.2566C69.5885 67.011 67.7937 68.0622 66.1701 68.7976C64.5466 69.5329 62.7145 70.404 62.1982 72.0992C61.6322 73.9326 62.8684 75.771 63.7274 77.4909C65.4006 80.8418 65.6389 85.1157 63.4791 88.1804C61.5602 90.8948 58.2163 92.1829 55.0685 93.313C56.5836 94.4977 58.4663 95.1208 60.3934 95.0749C59.671 97.1649 57.1016 97.8583 54.9121 98.2432C56.0615 99.3438 57.7074 99.7435 59.2837 99.9854C60.4331 100.163 61.6123 100.279 62.7592 100.05C63.9061 99.82 64.9934 99.2007 65.5843 98.1988C66.0808 97.3426 66.2496 96.1754 67.1457 95.7436C67.5504 95.5854 67.986 95.522 68.4192 95.5585L72.1429 95.598C73.3023 95.598 74.6751 95.5092 75.2733 94.5246C75.494 94.1039 75.6097 93.6368 75.611 93.1625C75.7723 90.7344 75.3031 88.1681 76.3085 85.9522C76.6114 85.2835 74.6676 84.2249 74.8712 83.5167C75.5712 81.0812 75.7475 79.1639 75.7401 76.6297C75.7401 74.6679 77.0235 72.9776 78.0835 71.3219C79.1435 69.6661 80.0298 67.5761 79.1932 65.7994C78.2498 63.818 71.1649 60.9383 70.0502 63.7982Z" fill="#2C2C2C"/>
<path d="M75.0078 154.151L75.9561 154.775L76.1026 154.872L76.1299 154.889L77.2545 155.629L79.8809 156.068L82.1896 155.91C82.1896 155.91 82.8549 154.529 81.8098 154.561C81.4751 154.544 81.1487 154.45 80.8565 154.287L80.7125 154.215C80.5611 154.136 80.4097 154.047 80.2607 153.954C79.9504 153.759 79.6575 153.546 79.4216 153.366C79.0741 153.1 78.8432 152.897 78.8432 152.897L75.0078 154.151Z" fill="#FBBEBE"/>
<path opacity="0.1" d="M75.9688 154.775L76.1152 154.871L76.1425 154.888L77.2671 155.629L79.8935 156.068L82.2022 155.91C82.2022 155.91 82.8675 154.528 81.8224 154.56C81.4878 154.543 81.1613 154.449 80.8692 154.286C81.0529 154.429 81.2068 154.585 81.2217 154.715C81.2639 155.068 79.5137 155.703 79.5137 155.703L77.0461 155.054C77.0461 155.054 76.6266 154.935 76.0532 154.787L75.9985 154.772L75.9688 154.775Z" fill="black"/>
<path d="M71.748 155.378C71.748 155.378 73.7713 155.817 75.1317 155.691C76.4921 155.565 78.8355 156.73 78.8355 156.73C78.8355 156.73 79.6274 157.1 82.0627 157.258C84.498 157.416 84.498 156.187 84.498 156.187C84.22 154.516 80.3722 153.966 80.253 153.941C80.3002 153.966 80.5012 154.067 80.7048 154.203C80.9779 154.381 81.2733 154.613 81.2956 154.8C81.3378 155.151 79.5877 155.787 79.5877 155.787L77.1201 155.141C77.1201 155.141 76.7006 155.02 76.1271 154.872H76.0725C75.2223 154.641 74.3584 154.464 73.4858 154.341C72.4233 154.228 71.8796 155.126 71.7679 155.328C71.76 155.344 71.7533 155.361 71.748 155.378Z" fill="#2C2C2C"/>
<path d="M39.8584 111.003L40.9333 111.822C40.9333 111.822 41.2461 111.808 41.7128 111.793H41.8618C42.5295 111.768 43.4505 111.743 44.2325 111.743C44.7379 111.721 45.2446 111.749 45.7443 111.827C46.2806 112.015 47.2338 108.777 47.2338 108.777L46.1564 108.531L45.799 108.447L45.5507 108.387L44.6744 108.183L42.0181 108.484L40.1513 109.678L39.8584 111.003Z" fill="#FBBEBE"/>
<path opacity="0.1" d="M39.8584 111.003L40.9333 111.822C40.9333 111.822 41.2461 111.808 41.7128 111.793C41.4986 111.711 41.3221 111.554 41.2163 111.351C40.5212 109.434 43.9694 108.614 43.9694 108.614L45.5755 108.545L45.8883 108.531H46.1366L45.7791 108.447L45.5308 108.387L44.6545 108.183L41.9983 108.484L40.1315 109.678L39.8584 111.003Z" fill="black"/>
<path d="M37.7385 111.869C38.389 112.466 42.6489 111.869 42.8276 111.854C42.5044 111.89 42.1772 111.868 41.8619 111.787C41.5459 111.731 41.2723 111.536 41.1172 111.257C40.4221 109.337 43.8703 108.52 43.8703 108.52L45.4764 108.451L45.7867 108.436L49.6916 108.269L49.8803 107.2C49.8803 107.2 48.6118 107.319 46.6208 107.477C45.5012 107.568 44.1384 107.669 42.6662 107.765C38.5528 108.037 37.5747 110.689 37.5747 110.689C37.5747 110.689 37.0757 111.257 37.7385 111.869Z" fill="#2C2C2C"/>
<path d="M85.5133 65.5527C85.5396 65.6112 85.5714 65.6674 85.6077 65.7205L86.556 67.1024L89.0235 67.3491L89.0509 66.3769L89.4654 51.749C89.4654 51.749 91.1734 41.9379 87.9462 42.503C84.7189 43.0681 86.7446 51.749 86.7446 51.749C86.7446 51.749 86.3772 56.1512 86.1191 57.4738C85.8683 58.752 84.7438 63.9488 85.5133 65.5527Z" fill="#FBBEBE"/>
<path d="M79.9756 101.885L80.6781 103.08L82.2495 105.752C82.2495 105.752 85.0994 106.791 85.8292 105.999C86.2289 105.567 86.6609 104.059 86.9637 102.791C87.212 101.765 87.3783 100.898 87.3783 100.898L79.9756 101.885Z" fill="#FBBEBE"/>
<path opacity="0.1" d="M79.9756 101.886L80.6781 103.08C80.7221 103.042 80.762 103 80.7973 102.954C81.5917 101.948 85.0895 102.74 86.9637 102.804C87.212 101.777 87.3783 100.911 87.3783 100.911L79.9756 101.886Z" fill="black"/>
<path opacity="0.1" d="M44.2324 111.738C44.7379 111.715 45.2445 111.743 45.7443 111.822C46.2805 112.01 47.2337 108.772 47.2337 108.772L45.7989 108.436L49.7038 108.269L49.8925 107.2C49.8925 107.2 48.6239 107.319 46.633 107.477C46.2216 107.712 45.8545 108.017 45.5481 108.377L45.4886 108.451C44.6569 109.465 44.3491 110.773 44.2324 111.738Z" fill="black"/>
<path opacity="0.1" d="M75.0078 154.151L76.1026 154.872C77.736 154.578 79.228 154.117 79.4043 153.391C79.405 153.379 79.405 153.368 79.4043 153.357C79.0567 153.09 78.8258 152.888 78.8258 152.888L75.0078 154.151Z" fill="black"/>
<path opacity="0.1" d="M71.7705 155.335C73.2131 155.264 74.6502 155.111 76.0751 154.876C75.2241 154.644 74.3595 154.466 73.4859 154.341C72.4259 154.227 71.8822 155.126 71.7705 155.335Z" fill="black"/>
<path d="M44.3516 112.985C44.3516 113.772 46.5337 114.275 46.5337 114.275L53.1792 120.155C53.1792 120.155 57.3548 122.011 60.011 124.683C62.6672 127.356 65.0107 125.061 65.0107 125.061C67.8258 124.37 75.9336 114.621 75.9336 114.621C75.9336 114.621 76.1222 125.754 76.5021 126.571C76.8819 127.388 76.3754 129.621 76.1545 130.566C76.015 131.354 75.9619 132.155 75.9956 132.955C75.9956 132.955 72.9596 144.496 73.2128 145.502C73.466 146.509 71.5669 151.227 71.5669 151.227V155.158C71.5669 155.158 79.0019 154.874 79.4115 153.209C79.8211 151.543 77.5472 150.818 77.5472 150.818V150.408C79.0367 149.653 79.3172 144.466 79.3172 144.466C79.3172 144.466 81.534 138.05 81.8493 136.982C82.1646 135.913 81.8493 134.307 81.8493 134.307L82.0702 132.925C82.0702 132.925 82.5444 131.98 82.5444 131.793C82.6064 131.314 82.7919 130.859 83.0831 130.472C83.4306 130.063 82.7033 129.088 82.7033 129.088L83.3363 127.452V125.661L84.8258 119.151C84.8258 119.151 86.3773 111.571 85.8386 109.086C85.2999 106.601 86.4717 105.345 86.4717 105.345C83.9321 106.668 82.6511 103.724 82.2316 102.458C82.1248 102.132 82.0727 101.915 82.0727 101.915C82.0727 101.915 78.5848 100.637 75.3378 100.943C74.6784 100.996 74.0285 101.133 73.4039 101.35C69.7969 102.641 69.2284 107.985 69.2284 107.985L66.0335 112.829C64.3876 117.138 61.92 117.577 61.92 117.577C61.92 117.577 56.1309 113.71 55.9621 113.52C55.7933 113.33 53.5888 112.387 53.5888 112.387C53.3282 111.931 52.9295 111.569 52.4494 111.351C51.6898 111.035 51.6277 109.871 51.6277 109.871C51.5334 107.134 49.9197 106.909 49.9197 106.909C44.3193 106.446 44.3516 112.2 44.3516 112.985Z" fill="#2C2C2C"/>
<path d="M79.9755 87.0752H76.5596V97.6093H79.9755V87.0752Z" fill="#F86D70"/>
<path opacity="0.1" d="M79.9755 87.0752H76.5596V97.6093H79.9755V87.0752Z" fill="black"/>
<path opacity="0.1" d="M85.5111 65.5303C85.5106 65.5377 85.5106 65.5451 85.5111 65.5525C85.5374 65.611 85.5692 65.6672 85.6054 65.7203L86.5538 67.1021L89.0213 67.3489L89.0486 66.3767C88.2791 66.3174 86.5264 66.1077 85.5111 65.5303Z" fill="black"/>
<path d="M85.6081 65.7207C85.6081 65.7207 85.7347 71.253 84.342 72.0081C82.9494 72.7632 82.4082 76.6965 82.4082 76.6965C82.4082 76.6965 86.6284 79.4553 87.5693 80.6693C88.5101 81.8834 90.6699 84.7754 90.2255 85.4663C89.7811 86.1572 91.3029 89.3034 91.3029 89.3034C91.3029 89.3034 88.5176 94.9641 89.1506 97.1035C89.7836 99.2428 89.8457 104.901 89.8457 104.901H91.0497C91.0497 104.901 90.6699 100.247 90.6699 98.3595C90.6699 96.4717 91.9334 89.7426 91.9334 89.7426C91.9334 89.7426 92.5044 83.1394 91.9334 82.9518C91.3625 82.7643 88.0111 80.1215 87.7579 78.9248C87.5047 77.728 89.5304 66.5868 89.5304 66.5868C89.5304 66.5868 86.9362 66.4758 85.6081 65.7207Z" fill="#F78096"/>
<path opacity="0.1" d="M76.4951 86.0969C76.6106 86.8668 76.8926 87.6026 77.3218 88.2536L79.6603 87.8588C79.6603 87.8588 86.6832 86.2845 88.1329 86.1561C89.0112 86.0409 89.8677 85.7981 90.675 85.4356C90.1187 83.4756 89.0323 81.7049 87.5346 80.3154L86.6434 79.4937C85.3302 78.2816 83.8082 77.3145 82.1502 76.6387C82.2544 76.725 89.6224 82.9779 88.0088 84.2043C86.3952 85.4307 82.0509 82.4449 82.0509 82.4449L77.1108 78.2253L76.932 78.0723L76.6465 78.514C76.7918 78.5735 76.9335 78.6409 77.071 78.7164C78.7547 79.6351 80.0041 81.1785 80.5465 83.01C81.5618 86.4029 76.4951 86.0969 76.4951 86.0969Z" fill="black"/>
<path d="M74.9756 101.821C74.9756 101.821 79.6575 104.399 80.7945 102.953C81.0427 102.635 81.5665 102.497 82.2194 102.46C82.1127 102.134 82.0606 101.917 82.0606 101.917C82.0606 101.917 78.5727 100.639 75.3256 100.945C75.1121 101.478 74.9756 101.821 74.9756 101.821Z" fill="#444053"/>
<path d="M77.1304 78.0777L82.2492 82.4552C82.2492 82.4552 86.5762 85.4508 88.2072 84.2146C89.8381 82.9783 82.346 76.6465 82.346 76.6465C84.0004 77.3246 85.5209 78.2887 86.8368 79.4941L87.728 80.3158C90.0715 82.4749 90.6003 82.4749 90.6797 85.6482C90.6996 86.4305 90.4315 87.5532 90.2254 87.7556C89.4658 88.4958 88.9345 93.8727 89.0512 94.5019C89.1679 95.1312 87.6362 100.562 88.1327 102.072C88.6292 103.583 81.9265 101.317 80.792 102.766C79.6575 104.214 74.9756 101.633 74.9756 101.633C74.9756 101.633 77.5698 95.0275 78.2028 94.5883C78.8358 94.1491 79.5955 90.7512 78.2028 89.1794C76.8101 87.6075 76.686 86.0973 76.686 86.0973C76.686 86.0973 81.7503 86.4083 80.7349 83.0153C80.157 81.0252 78.736 79.384 76.8424 78.5194L77.1304 78.0777Z" fill="#F2F2F2"/>
<path opacity="0.1" d="M83.9619 89.2119C83.9619 89.2119 81.9982 92.8911 79.4587 93.846C79.3767 93.8756 79.2973 93.9028 79.2104 93.9275C76.5591 94.7294 84.1605 90.3519 83.9619 89.2119Z" fill="black"/>
<path d="M56.5008 56.6621C56.5008 56.6621 57.4491 59.0532 58.2088 59.8699C58.9684 60.6867 64.5986 68.8643 64.5986 68.8643L65.0753 69.8513L65.4849 70.6928L69.0919 70.3152L69.3402 68.8692L69.2011 68.7014C68.8387 68.2696 67.8507 67.1098 67.1879 66.604C66.3662 65.9772 64.7203 63.902 64.7203 63.902C64.7203 63.902 59.5965 58.6164 59.2167 57.1704C58.8368 55.7244 53.7105 47.0533 52.5736 48.5536C51.4366 50.0539 56.5008 56.6621 56.5008 56.6621Z" fill="#FBBEBE"/>
<g opacity="0.1">
<path opacity="0.1" d="M66.9673 95.5583C66.5343 95.5211 66.0984 95.5835 65.6938 95.7409C64.8001 96.1728 64.6313 97.3399 64.1348 98.1962C63.5539 99.198 62.4467 99.8174 61.3072 100.047C61.0808 100.091 60.8519 100.122 60.6221 100.141C61.3477 100.211 62.0798 100.179 62.7967 100.047C63.9362 99.8174 65.0434 99.198 65.6243 98.1962C66.1208 97.3399 66.2896 96.1728 67.1833 95.7409C67.4179 95.6361 67.6708 95.5773 67.928 95.5682L66.9673 95.5583Z" fill="black"/>
<path opacity="0.1" d="M75.7848 76.6296C75.7848 74.6679 77.0682 72.9776 78.1257 71.3218C79.1833 69.6661 80.072 67.576 79.2354 65.7994C78.5205 64.2818 74.2109 62.246 71.7235 62.6482C74.1588 62.9616 77.1601 64.5557 77.7459 65.7994C78.5825 67.576 77.6938 69.6661 76.6363 71.3218C75.5787 72.9776 74.2903 74.6679 74.2953 76.6296C74.2953 79.1613 74.124 81.0712 73.4239 83.5166C73.2229 84.2199 75.1617 85.2834 74.8638 85.9497C73.8559 88.1705 74.3276 90.7319 74.1662 93.16C74.1627 93.6342 74.0463 94.1011 73.8261 94.5221C73.3296 95.3339 72.3118 95.5436 71.3213 95.5881H72.1877C73.3445 95.5881 74.7173 95.4992 75.3156 94.5147C75.5358 94.0937 75.6522 93.6268 75.6557 93.1525C75.8171 90.7244 75.3454 88.1606 76.3533 85.9423C76.6561 85.276 74.7123 84.215 74.9134 83.5092C75.6135 81.0811 75.7897 79.1613 75.7848 76.6296Z" fill="black"/>
</g>
<path opacity="0.1" d="M65.0752 69.8462L65.4848 70.6876L69.0918 70.3101L69.3401 68.8641L69.2011 68.6963C68.8163 68.8838 65.9341 70.2632 65.0752 69.8462Z" fill="black"/>
<path opacity="0.1" d="M78.3937 79.3046C78.3937 79.3046 77.5074 77.9228 77.001 78.2978C76.4946 78.6729 76.2985 77.1652 76.008 77.4169C75.7176 77.6686 74.871 78.3694 74.5185 77.3898C74.243 76.61 71.2442 71.6773 70.0277 69.6934C69.7149 69.1801 69.5188 68.8643 69.5188 68.8643C69.5188 68.8643 66.1029 70.562 65.2812 69.9969V71.1912L65.9763 71.2553L69.7 78.1646C69.7 78.1646 70.8718 80.0177 70.7923 80.6642C70.7129 81.3108 72.2942 84.1411 72.5474 84.3286C72.8007 84.5161 75.5264 87.6623 75.5264 87.6623C75.5264 87.6623 76.9191 94.4556 75.7151 96.3433C74.5111 98.231 72.4258 99.6128 72.4258 99.6128C72.4258 99.6128 71.7977 101.436 71.8896 101.626C71.9814 101.816 71.1597 102.633 71.5396 102.885C71.9194 103.137 72.4258 104.896 72.4258 104.896C72.4258 104.896 74.1983 102.066 75.1565 101.626C76.1148 101.187 77.3411 95.3982 77.3411 95.3982C77.3411 95.3982 77.6911 91.988 77.7184 89.7869C77.7458 87.5858 77.634 79.3046 78.3937 79.3046Z" fill="black"/>
<path d="M78.2032 79.3046C78.2032 79.3046 77.3195 77.9228 76.8131 78.2978C76.3066 78.6729 76.108 77.1652 75.8201 77.4169C75.5321 77.6686 74.6856 78.3694 74.3306 77.3898C74.0525 76.61 71.0537 71.6773 69.8398 69.6934L69.3309 68.8643C69.3309 68.8643 65.915 70.562 65.0908 69.9969V71.1912L65.7884 71.2553L69.5121 78.1646C69.5121 78.1646 70.6863 80.0177 70.6044 80.6642C70.5225 81.3108 72.0939 84.1411 72.3595 84.3286C72.6251 84.5161 75.3385 87.6623 75.3385 87.6623C75.3385 87.6623 76.7311 94.4556 75.5296 96.3433C74.8948 97.2913 74.1228 98.1412 73.2383 98.8652C72.4953 99.4744 71.9725 100.308 71.7488 101.239C71.7056 101.366 71.6905 101.501 71.7041 101.634C71.796 101.821 70.9743 102.641 71.3541 102.892C71.7339 103.144 72.2453 104.911 72.2453 104.911C72.2453 104.911 74.0178 102.08 74.976 101.641C75.9343 101.202 77.1631 95.413 77.1631 95.413C77.1631 95.413 77.5106 92.0028 77.5404 89.8017C77.5702 87.6006 77.4585 79.3046 78.2032 79.3046Z" fill="#F78096"/>
<path opacity="0.1" d="M69.5342 107.924C69.5342 107.924 72.1929 108.417 73.2579 109.18C74.3229 109.942 69.209 107.986 69.209 107.986L69.5342 107.924Z" fill="black"/>
<path opacity="0.1" d="M75.9268 114.62C75.9268 114.62 78.6997 116.917 78.2032 118.993C77.7067 121.068 76.4257 126.289 76.4257 126.289L75.9268 114.62Z" fill="black"/>
<path opacity="0.1" d="M51.6748 110.204C51.6748 110.204 47.7674 110.629 48.0206 111.132C48.2738 111.635 51.6748 110.668 51.6748 110.668V110.204Z" fill="black"/>
<path opacity="0.1" d="M81.6783 129.307C81.6783 129.307 81.9266 129.62 80.4768 129.307C79.0271 128.994 80.097 128.026 80.097 128.026L81.6783 129.307Z" fill="black"/>
<path opacity="0.1" d="M81.1821 133.648C81.1821 133.648 79.1961 133.961 78.1311 133.648C77.0661 133.335 81.1821 133.648 81.1821 133.648Z" fill="black"/>
<path opacity="0.1" d="M77.0955 150.629C77.0955 150.629 76.7479 150.252 75.0077 150.943C73.2675 151.634 72.5724 151.666 72.0659 151.436C71.5595 151.207 77.0955 150.629 77.0955 150.629Z" fill="black"/>
<path opacity="0.1" d="M79.0272 109.668L76.5596 113.081C76.5596 113.081 77.8877 110.092 79.0272 109.668Z" fill="black"/>
<path opacity="0.1" d="M74.2308 78.2979C74.2308 78.2979 74.1241 79.4305 72.5328 79.8722C70.9415 80.3139 70.6387 80.6717 70.6387 80.6717" fill="black"/>
<path opacity="0.1" d="M70.0949 70.0879C70.0949 70.0879 67.9948 71.5684 65.8027 71.255L70.0949 70.0879Z" fill="black"/>
<path opacity="0.1" d="M71.6943 101.79C71.6943 101.79 72.3075 102.172 73.7796 100.499L71.6943 101.79Z" fill="black"/>
<path opacity="0.1" d="M86.9839 84.0492C87.0435 83.7432 86.83 83.4595 86.6289 83.2201L86.2168 82.7266C86.1364 82.6257 86.0455 82.5329 85.9462 82.4502C85.698 82.2602 85.3802 82.2035 85.1221 82.0332" fill="black"/>
<path opacity="0.1" d="M220.272 -1.97295C220.272 -1.97295 199.372 -3.22648 201.83 11.3323C201.83 11.3323 201.333 13.906 203.687 15.0731C203.687 15.0731 203.724 13.9948 205.832 14.3625C206.582 14.4861 207.344 14.5226 208.103 14.471C209.128 14.4007 210.102 14.0005 210.878 13.331C210.878 13.331 216.754 10.9177 219.038 1.3731C219.038 1.3731 220.729 -0.709544 220.662 -1.24501L217.134 0.252814C217.134 0.252814 218.341 2.78209 217.383 4.88447C217.383 4.88447 217.268 0.344114 216.591 0.442818C216.454 0.465026 214.759 1.31881 214.759 1.31881C214.759 1.31881 216.831 5.72345 215.267 8.92637C215.267 8.92637 215.861 3.49769 214.111 1.63713L211.628 3.0782C211.628 3.0782 214.051 7.62842 212.408 11.3421C212.408 11.3421 212.83 5.64695 211.104 3.4286L208.855 5.17318C208.855 5.17318 211.132 9.65925 209.744 12.7388C209.744 12.7388 209.563 6.10839 208.369 5.60747C208.369 5.60747 206.4 7.33478 206.1 8.04051C206.1 8.04051 207.659 11.2977 206.691 13.0152C206.691 13.0152 206.097 8.59818 205.611 8.57351C205.611 8.57351 203.649 11.5001 203.446 13.5087C203.446 13.5087 203.53 10.5254 205.136 8.29714C205.136 8.29714 203.24 8.62039 202.133 9.84185C202.133 9.84185 202.438 7.77401 205.621 7.59388C205.621 7.59388 207.242 5.37305 207.674 5.23733C207.674 5.23733 204.511 4.97577 202.592 5.81968C202.592 5.81968 204.28 3.86783 208.254 4.75616L210.476 2.95235C210.476 2.95235 206.311 2.38727 204.543 3.01157C204.543 3.01157 206.576 1.28426 211.075 2.54273L213.492 1.1066C213.492 1.1066 209.94 0.346582 207.825 0.613081C207.825 0.613081 210.059 -0.583697 214.202 0.714252L215.94 -0.0581018C215.94 -0.0581018 213.339 -0.566424 212.576 -0.647854C211.814 -0.729285 211.775 -0.936562 211.775 -0.936562C213.423 -1.20972 215.115 -1.02268 216.663 -0.396161C216.663 -0.396161 220.337 -1.74346 220.272 -1.97295Z" fill="#05838B"/>
<path opacity="0.1" d="M194.494 1.73104C194.494 1.73104 185.06 1.1635 186.165 7.74207C186.165 7.74207 185.944 8.90677 187.002 9.43484C187.002 9.43484 187.019 8.94132 187.972 9.11158C188.311 9.16834 188.655 9.18487 188.998 9.16093C189.461 9.1296 189.901 8.94848 190.251 8.64521C190.251 8.64521 192.908 7.55701 193.94 3.24367C193.94 3.24367 194.702 2.30105 194.673 2.05923L193.079 2.73535C193.079 2.73535 193.625 3.88031 193.195 4.83033C193.195 4.83033 193.143 2.7773 192.838 2.82665C192.776 2.82665 192.009 3.22146 192.009 3.22146C192.009 3.22146 192.947 5.2128 192.24 6.66127C192.24 6.66127 192.508 4.20849 191.716 3.36705L190.594 4.01849C190.594 4.01849 191.691 6.07399 190.946 7.75194C190.946 7.75194 191.138 5.17825 190.358 4.17642L189.343 4.97344C189.343 4.97344 190.37 7.0018 189.745 8.39105C189.745 8.39105 189.663 5.3954 189.122 5.17085C189.122 5.17085 188.233 5.95061 188.097 6.27139C188.097 6.27139 188.802 7.75194 188.365 8.5169C188.365 8.5169 188.097 6.52062 187.868 6.51322C187.868 6.51322 186.984 7.83584 186.89 8.73404C186.934 7.8958 187.198 7.08348 187.655 6.3775C187.143 6.47374 186.671 6.71655 186.297 7.07583C186.297 7.07583 186.436 6.14308 187.873 6.05918C187.873 6.05918 188.618 5.05734 188.802 4.99565C188.802 4.99565 187.372 4.87721 186.505 5.25968C186.505 5.25968 187.267 4.37629 189.065 4.76617L190.058 3.95187C190.058 3.95187 188.176 3.70511 187.377 3.97901C187.377 3.97901 188.295 3.19925 190.328 3.7668L191.421 3.11782C191.421 3.11782 189.817 2.77236 188.859 2.89821C188.859 2.89821 189.869 2.35534 191.741 2.94262L192.523 2.59469C192.523 2.59469 191.346 2.36274 191.001 2.3282C190.656 2.29365 190.639 2.19741 190.639 2.19741C191.384 2.07428 192.149 2.15966 192.848 2.44417C192.848 2.44417 194.524 1.83468 194.494 1.73104Z" fill="#05838B"/>
<path d="M227.447 158.581C232.96 158.581 237.429 157.829 237.429 156.903C237.429 155.976 232.96 155.225 227.447 155.225C221.934 155.225 217.465 155.976 217.465 156.903C217.465 157.829 221.934 158.581 227.447 158.581Z" fill="#05838B"/>
<path d="M231.575 154.158C232.031 153.789 232.362 153.291 232.526 152.73C232.65 152.165 232.407 151.496 231.86 151.276C231.25 151.044 230.597 151.466 230.103 151.891C229.609 152.315 229.04 152.801 228.395 152.71C229.071 152.099 229.377 151.18 229.199 150.289C229.171 150.108 229.094 149.937 228.976 149.796C228.636 149.435 228.022 149.588 227.615 149.872C226.324 150.775 225.964 152.52 225.957 154.087C225.828 153.522 225.937 152.932 225.935 152.359C225.932 151.787 225.771 151.126 225.277 150.822C224.972 150.659 224.63 150.579 224.284 150.59C223.705 150.568 223.057 150.627 222.663 151.049C222.166 151.572 222.298 152.451 222.725 153.023C223.152 153.596 223.805 153.963 224.405 154.361C224.886 154.645 225.296 155.034 225.605 155.498C225.642 155.563 225.672 155.632 225.694 155.703H229.333C230.147 155.291 230.901 154.771 231.575 154.158Z" fill="#05838B"/>
</g>
<defs>
<linearGradient id="paint0_linear" x1="200.717" y1="122.583" x2="200.717" y2="23.2968" gradientUnits="userSpaceOnUse">
<stop stop-color="#808080" stop-opacity="0.25"/>
<stop offset="0.54" stop-color="#808080" stop-opacity="0.12"/>
<stop offset="1" stop-color="#808080" stop-opacity="0.1"/>
</linearGradient>
<linearGradient id="paint1_linear" x1="37.3868" y1="99.5673" x2="92.5632" y2="99.5673" gradientUnits="userSpaceOnUse">
<stop stop-color="#808080" stop-opacity="0.25"/>
<stop offset="0.54" stop-color="#808080" stop-opacity="0.12"/>
<stop offset="1" stop-color="#808080" stop-opacity="0.1"/>
</linearGradient>
<clipPath id="clip0">
<rect width="284" height="161" fill="white"/>
</clipPath>
</defs>
</svg>
